<?xml version="1.0" standalone="no"?>
<!DOCTYPE svg PUBLIC "-//W3C//DTD SVG 20010904//EN"
 "http://www.w3.org/TR/2001/REC-SVG-20010904/DTD/svg10.dtd">
<svg version="1.0" xmlns="http://www.w3.org/2000/svg"
 width="1024.000000pt" height="1024.000000pt" viewBox="0 0 1024.000000 1024.000000"
 preserveAspectRatio="xMidYMid meet">
<metadata>
Created by potrace 1.14, written by Peter Selinger 2001-2017
</metadata>
<g transform="translate(0.000000,1024.000000) scale(0.100000,-0.100000)"
fill="#000000" stroke="none">
<path d="M5200 9474 c-19 -2 -72 -7 -117 -10 -46 -3 -83 -9 -83 -13 0 -4 89
-17 198 -30 516 -59 877 -157 1151 -312 89 -51 231 -144 231 -153 0 -1 -55 26
-122 60 -128 65 -333 152 -422 180 -96 30 -300 83 -304 80 -2 -2 54 -34 125
-71 129 -67 182 -101 108 -70 -65 27 -155 61 -225 84 -62 21 -352 83 -357 77
-2 -2 35 -22 83 -45 47 -23 84 -44 82 -47 -3 -2 -28 3 -57 12 -95 28 -214 45
-361 51 -156 6 -164 2 -70 -36 63 -25 136 -64 104 -56 -80 21 -210 37 -334 41
l-145 4 130 -34 c240 -63 408 -131 559 -226 112 -71 90 -64 -94 27 -226 113
-412 156 -675 157 -266 1 -365 -17 -205 -39 105 -14 87 -24 -45 -26 -71 0
-152 -4 -180 -8 l-50 -7 60 -19 60 -18 -114 -13 c-130 -14 -411 -66 -411 -75
0 -4 15 -10 33 -14 17 -3 54 -16 80 -28 l49 -22 -154 2 -153 2 95 -33 95 -33
-40 -12 c-22 -7 -96 -21 -164 -31 -68 -11 -126 -21 -128 -24 -2 -2 35 -10 82
-17 115 -17 124 -34 14 -26 -82 6 -243 36 -235 44 12 12 138 33 261 43 76 6
141 12 142 14 8 8 -95 27 -170 32 -45 3 -88 8 -96 10 -45 14 519 274 833 384
136 48 372 122 428 136 16 3 25 11 21 17 -8 14 -263 2 -376 -18 -612 -109
-1319 -490 -1834 -989 -114 -110 -136 -138 -86 -112 39 19 383 129 389 124 2
-3 -27 -25 -65 -51 -167 -111 -419 -331 -542 -473 -82 -94 -174 -214 -166
-214 8 0 277 170 330 208 l52 37 -44 -60 c-171 -236 -343 -573 -394 -775 -14
-53 -16 -55 -56 -63 -42 -8 -43 -8 -107 52 -227 212 -553 335 -849 318 -176
-10 -291 -40 -450 -117 -168 -81 -370 -256 -476 -411 l-39 -58 1 -143 c0 -115
3 -137 11 -113 18 48 103 188 168 274 262 347 724 504 1107 375 188 -63 386
-207 523 -379 52 -65 192 -292 193 -312 0 -7 3 -11 5 -8 9 9 52 -76 51 -99 -1
-17 -2 -17 -6 -3 -8 30 -23 8 -17 -26 3 -25 2 -28 -5 -12 -15 32 -13 1 10
-130 32 -176 32 -586 1 -585 -4 0 -29 51 -56 113 -137 310 -210 443 -322 583
-176 221 -351 349 -544 401 -88 23 -254 23 -340 0 -344 -93 -636 -464 -751
-952 -26 -111 -38 -485 -20 -606 33 -215 111 -458 215 -669 33 -69 61 -128 61
-132 0 -4 -28 -25 -62 -47 l-61 -39 -28 41 c-15 23 -50 85 -77 137 -27 52 -51
97 -53 99 -2 2 -4 -65 -4 -151 l0 -155 56 -84 c113 -169 257 -319 390 -405 47
-30 51 -36 63 -91 17 -80 90 -227 156 -314 206 -276 509 -326 716 -119 57 56
106 139 129 217 14 45 18 48 90 58 75 11 150 35 242 77 l87 40 110 -41 c97
-36 120 -41 196 -41 47 0 85 -4 85 -10 0 -22 189 -452 280 -635 86 -175 234
-424 245 -414 2 2 -7 69 -21 149 -13 80 -24 150 -23 155 0 6 11 -21 24 -59 56
-162 222 -448 358 -618 60 -76 187 -212 192 -206 2 2 -48 165 -85 273 0 0 51
-50 114 -111 62 -61 156 -144 207 -186 110 -88 325 -236 397 -272 37 -19 67
-47 118 -113 148 -191 371 -399 564 -526 480 -317 1042 -426 1607 -312 499
101 912 364 1179 750 77 112 202 375 171 361 -7 -2 -69 -30 -139 -61 l-127
-56 -58 25 c-69 29 -175 88 -221 122 -37 29 -102 121 -102 145 0 9 62 144 138
300 l139 284 112 18 c211 33 394 108 546 223 63 47 163 150 154 158 -2 2 -59
31 -127 66 -80 40 -127 70 -132 84 -5 11 -14 53 -20 91 -6 39 -29 153 -51 254
-21 101 -38 185 -37 186 2 1 35 -1 73 -6 369 -42 768 70 1077 304 346 262 633
700 742 1132 56 225 61 264 61 530 0 234 -2 258 -27 376 -62 287 -172 511
-332 677 -234 242 -533 305 -795 166 -36 -18 -65 -33 -66 -31 -1 1 -10 63 -19
137 -39 319 -168 695 -342 996 -254 441 -602 791 -1087 1093 -408 254 -894
424 -1357 475 -141 15 -390 26 -450 20z m-713 -676 c32 -35 83 -127 103 -184
l18 -52 -81 -16 c-141 -30 -226 -55 -307 -92 l-79 -36 -47 41 c-26 22 -52 41
-58 41 -6 0 13 -22 43 -49 l54 -47 -49 -29 c-27 -15 -63 -38 -80 -51 l-32 -23
-18 21 c-66 73 -291 220 -373 243 -20 6 -9 14 70 50 188 86 419 157 604 185
170 25 207 25 232 -2z m378 -4 c50 -9 94 -20 98 -24 4 -3 -18 -12 -50 -20 -32
-7 -80 -19 -106 -27 l-49 -14 7 -109 7 -109 -43 -11 c-161 -41 -352 -129 -574
-264 -67 -40 -54 -45 -120 39 l-29 37 21 18 c45 36 261 149 318 166 33 10 112
29 175 44 137 31 135 23 57 180 -28 58 -53 109 -56 114 -6 14 239 -1 344 -20z
m397 -146 c165 -82 368 -208 452 -280 l38 -34 -163 14 c-112 9 -215 11 -324 6
-264 -12 -237 -16 -256 35 -14 38 -24 48 -69 70 -52 25 -54 28 -81 105 -16 43
-36 90 -45 103 -8 14 -14 26 -12 27 2 2 39 13 83 24 140 37 175 30 377 -70z
m-438 -77 c30 -87 46 -107 102 -131 35 -15 44 -26 57 -63 l15 -46 -71 -16
c-220 -49 -474 -146 -636 -243 l-74 -45 -26 31 c-56 67 -73 93 -68 105 6 16
214 133 341 192 54 26 147 62 205 82 58 19 110 39 114 43 5 4 9 45 8 91 0 45
1 80 3 78 2 -2 15 -37 30 -78z m-1179 -66 c186 -87 348 -233 511 -459 55 -77
184 -318 184 -345 0 -5 -10 -13 -22 -16 -13 -4 -74 -27 -136 -52 -62 -25 -114
-44 -115 -42 -2 2 -17 36 -33 74 -59 136 -140 253 -253 366 -117 116 -163 150
-278 208 -83 42 -152 63 -272 84 l-74 12 94 67 c115 82 262 160 286 151 10 -3
59 -25 108 -48z m3692 -36 c46 -39 86 -76 89 -83 4 -11 -128 -427 -136 -428
-3 0 -71 21 -152 47 -89 29 -148 53 -148 61 0 7 44 92 98 188 111 199 97 198
143 7 16 -68 34 -131 39 -140 13 -20 11 -9 -30 165 -17 72 -32 140 -33 151 -1
20 31 103 41 103 2 0 43 -32 89 -71z m212 -197 c284 -286 508 -710 596 -1124
18 -85 7 -123 -34 -114 -15 3 -57 12 -96 20 -38 9 -124 23 -190 31 -157 21
-154 20 -123 53 49 52 63 91 63 177 0 69 -5 89 -32 147 -38 82 -99 150 -161
180 -37 18 -63 22 -123 22 l-75 -1 -32 137 c-30 131 -31 141 -17 180 8 24 15
51 15 61 0 23 12 24 48 5 71 -37 172 -185 202 -296 15 -56 32 -76 92 -106 27
-13 47 -28 46 -32 -6 -24 17 -93 37 -112 28 -27 68 -21 85 11 14 24 1 46 -63
113 -32 33 -51 65 -72 123 -42 121 -115 286 -132 303 -14 14 -15 12 -9 -20 3
-19 14 -43 25 -55 22 -24 40 -65 86 -187 20 -51 42 -105 50 -120 17 -29 5 -47
-17 -28 -7 6 -31 21 -53 33 -34 19 -43 32 -65 92 -34 91 -72 161 -122 221 -37
45 -88 89 -111 97 -12 4 72 277 86 277 5 0 48 -40 96 -88z m-1957 42 c29 -5
38 -12 43 -33 18 -73 73 -106 206 -121 52 -6 104 -15 116 -20 15 -6 37 -41 67
-102 44 -94 126 -307 126 -330 0 -10 -30 -13 -118 -14 -141 -1 -230 -26 -346
-98 -81 -50 -221 -190 -308 -308 -28 -37 -54 -68 -58 -68 -3 0 -44 11 -91 25
-191 58 -465 87 -608 65 -44 -7 -84 -12 -87 -12 -4 1 -32 79 -64 174 -32 96
-75 207 -95 248 -20 41 -45 94 -55 118 l-19 42 59 30 c33 17 61 30 64 30 3 0
15 -21 28 -46 25 -50 63 -84 121 -109 51 -21 104 -19 162 9 145 67 176 226 66
336 -26 26 -64 53 -84 61 -20 7 -37 16 -37 19 0 10 330 90 410 99 89 10 449
13 502 5z m267 -73 c28 -30 50 -56 48 -57 -1 -1 -36 4 -77 11 -72 13 -160 47
-160 63 0 4 -3 16 -6 27 -5 19 -1 20 70 15 l75 -5 50 -54z m-2730 42 c-20 -26
-31 -33 -53 -33 -16 0 -17 2 -5 16 24 29 80 45 58 17z m121 8 c0 -21 -37 -54
-54 -48 -20 8 -17 39 4 49 22 10 50 9 50 -1z m117 -22 c6 -6 8 -20 6 -30 -5
-17 -11 -19 -37 -13 -44 9 -47 13 -36 35 12 21 49 26 67 8z m109 -44 c4 -8 3
-22 0 -30 -5 -13 -10 -14 -28 -4 -30 16 -29 14 -22 33 8 20 43 21 50 1z m-160
-18 c181 -48 359 -170 489 -337 82 -106 152 -275 162 -391 l6 -66 -33 -7 c-18
-3 -35 -4 -38 -2 -2 3 -10 38 -17 78 -23 135 -108 301 -215 421 -52 58 -209
172 -305 221 -92 46 -209 76 -304 76 -69 1 -74 2 -57 15 33 25 203 20 312 -8z
m252 -37 c13 -11 21 -24 17 -30 -8 -13 -45 -13 -45 1 0 5 -4 8 -9 4 -13 -8
-22 10 -15 29 8 21 24 20 52 -4z m-312 -31 c76 -23 162 -64 239 -114 191 -122
347 -367 370 -581 6 -58 6 -61 -20 -72 -35 -16 -35 -16 -35 19 0 74 -61 228
-136 346 -71 112 -224 247 -350 311 -70 35 -201 64 -324 71 -115 6 -115 6 -85
23 47 27 251 25 341 -3z m416 -54 c18 -25 -18 -26 -50 -2 -9 7 -9 13 -1 23 9
12 15 12 28 2 9 -7 19 -17 23 -23z m1090 -25 c39 -39 40 -42 36 -92 -5 -45
-11 -57 -43 -84 -107 -93 -261 -8 -225 125 15 58 66 91 138 91 50 0 58 -3 94
-40z m-1893 -16 c-33 -36 -109 -87 -117 -79 -4 3 22 34 56 67 47 45 66 58 74
50 9 -9 6 -18 -13 -38z m250 25 c109 -17 243 -78 334 -150 57 -46 101 -93 166
-176 l32 -43 -47 -32 c-26 -18 -59 -43 -73 -54 l-25 -22 -41 22 c-56 29 -171
29 -236 -1 -111 -50 -184 -159 -184 -274 0 -54 5 -76 33 -127 l32 -62 -73 -76
-73 -77 -57 33 c-31 17 -57 35 -57 38 0 4 18 39 40 77 73 132 94 174 88 180
-3 4 -27 13 -52 20 -43 13 -47 13 -71 -8 -13 -12 -46 -71 -73 -132 l-49 -110
-105 -7 c-57 -3 -121 -11 -141 -16 -30 -8 -37 -8 -37 4 0 8 3 14 8 14 4 0 35
5 69 10 50 8 68 17 97 46 25 25 43 35 55 31 17 -4 24 9 51 93 17 54 51 137 76
185 46 90 81 203 71 229 -4 9 -26 18 -57 22 -27 4 -50 8 -50 9 0 28 24 112 37
130 l18 23 15 -51 c16 -51 16 -52 59 -55 37 -3 42 -6 38 -23 -4 -15 -2 -17 6
-11 7 6 43 15 82 21 66 10 72 13 111 58 40 45 42 46 53 26 17 -33 13 -47 -19
-66 -34 -20 -36 -32 -16 -97 16 -53 30 -58 70 -26 l29 24 -19 33 c-24 40 -40
35 -37 -13 2 -42 -13 -51 -23 -14 -10 42 0 59 56 92 65 38 116 94 126 137 5
26 2 35 -20 54 -40 34 -78 30 -115 -12 -17 -20 -31 -39 -31 -44 0 -16 -107
-131 -122 -131 -6 0 -4 7 5 18 15 16 10 17 -85 17 -93 0 -101 2 -119 24 -10
13 -16 28 -13 33 4 6 10 5 15 -3 6 -10 9 -8 9 9 0 15 22 44 62 84 l61 60 51
-7 c27 -3 57 -10 65 -15 21 -12 12 -12 -48 1 -32 7 -56 7 -67 1 -12 -7 4 -11
60 -17 55 -5 79 -11 86 -23 8 -15 11 -15 20 -2 5 8 10 27 10 43 0 36 -29 47
-122 47 l-70 0 -66 -64 c-67 -64 -145 -119 -155 -110 -6 7 -27 -87 -27 -122 0
-24 -1 -25 -67 -18 -38 4 -69 8 -71 9 -2 2 12 27 31 56 19 30 44 73 56 97 25
49 33 51 51 17 l13 -25 17 28 c9 15 32 39 51 54 19 14 57 47 84 72 45 42 55
46 100 46 28 0 79 -5 114 -11z m651 -76 c43 -44 60 -68 51 -71 -8 -2 -18 4
-24 14 -11 20 -39 48 -80 79 -25 19 -36 45 -19 45 4 0 36 -30 72 -67z m3354
-9 c83 -26 156 -52 162 -58 6 -6 25 -71 41 -144 l30 -132 -36 -30 c-21 -15
-50 -52 -67 -82 -26 -47 -29 -62 -29 -138 1 -80 8 -111 50 -212 7 -17 4 -17
-36 -2 -24 8 -93 23 -152 34 -60 10 -110 20 -111 22 -6 7 -15 788 -9 788 3 0
74 -21 157 -46z m-499 -25 c64 -30 126 -89 160 -150 27 -49 30 -63 30 -144 0
-57 -5 -99 -13 -113 -20 -35 -22 -23 -7 35 15 58 4 132 -29 188 l-17 30 7 -30
c18 -81 21 -109 13 -151 -12 -63 -43 -102 -103 -130 -63 -29 -109 -30 -182 -3
-71 27 -132 82 -167 151 -14 29 -26 47 -27 40 0 -21 30 -85 51 -108 11 -12 22
-30 23 -40 2 -10 9 -20 16 -22 8 -3 10 0 5 8 -5 9 -4 11 4 6 6 -4 9 -12 6 -17
-4 -5 3 -9 14 -9 26 0 36 -16 14 -24 -25 -10 -87 56 -119 128 -20 44 -29 82
-32 136 -3 67 -1 81 25 130 23 45 37 60 82 82 70 36 177 39 246 7z m-3321 -38
c14 -22 -45 -117 -65 -105 -15 9 -10 54 8 85 17 28 46 38 57 20z m586 -68 c0
-7 -10 -13 -22 -13 -12 0 -18 3 -15 7 4 3 2 12 -4 19 -6 7 -8 18 -4 24 8 14
45 -16 45 -37z m47 -78 c21 -47 17 -68 -9 -37 -20 24 -38 69 -31 76 12 12 20
5 40 -39z m-932 -5 c8 -13 -15 -13 -35 0 -12 8 -11 10 7 10 12 0 25 -4 28 -10z
m-256 -79 l86 -17 -3 -29 c-2 -16 -18 -66 -37 -110 -30 -74 -35 -80 -59 -77
-14 2 -26 -1 -26 -7 0 -7 -11 -29 -25 -50 -15 -22 -23 -45 -19 -54 3 -10 1
-17 -5 -17 -6 0 -8 -8 -5 -17 5 -16 4 -16 -6 -3 -9 12 -11 10 -6 -12 6 -25 -8
-47 -22 -34 -8 8 23 96 59 166 15 30 33 73 40 95 6 22 18 52 25 67 17 33 18
32 -125 52 -57 8 -106 17 -109 20 -3 3 0 17 6 31 11 25 14 25 79 19 36 -4 105
-14 152 -23z m1231 -6 c10 -13 11 -18 1 -28 -10 -9 -15 -8 -27 7 -8 11 -14 23
-14 28 0 14 27 9 40 -7z m-306 -20 c4 -10 -12 -27 -49 -52 -30 -19 -55 -39
-55 -42 0 -3 8 -11 18 -18 21 -13 59 -106 72 -179 9 -45 9 -44 4 16 -3 36 -6
73 -6 83 1 9 -3 17 -9 17 -5 0 -9 9 -9 19 0 11 -8 27 -17 37 -14 14 -15 18 -4
22 7 2 28 17 46 33 l33 29 30 -93 c17 -50 33 -114 36 -142 l6 -50 -14 40 c-8
22 -18 56 -24 75 -9 30 -10 22 -8 -47 2 -46 -1 -83 -5 -83 -5 0 -24 -13 -42
-30 l-34 -30 -5 74 c-5 84 -31 145 -84 203 -30 32 -33 39 -17 42 10 2 42 23
72 47 29 24 55 44 56 44 2 0 5 -7 9 -15z m724 -87 c40 -102 97 -287 90 -292
-1 -2 -34 -14 -73 -26 -191 -62 -411 -213 -550 -377 -57 -67 -65 -83 -40 -83
22 0 18 -34 -6 -56 -35 -31 -136 -169 -177 -242 -39 -69 -101 -208 -122 -275
-7 -22 -17 -36 -24 -34 -56 22 -286 74 -404 92 -40 7 -43 9 -37 32 10 40 128
271 190 374 61 100 122 178 234 299 l70 75 78 -75 c43 -41 82 -81 86 -87 4 -7
18 -18 30 -25 21 -11 21 -10 -3 20 -14 17 -43 51 -64 76 -67 80 -30 63 64 -29
49 -49 90 -84 90 -79 0 11 -158 188 -196 219 l-24 21 27 26 c61 57 187 137
331 211 84 43 152 83 152 88 0 6 -5 30 -11 55 -6 25 -9 47 -6 51 4 3 41 18 84
34 96 34 74 38 -25 5 -54 -19 -72 -22 -72 -12 0 8 8 16 18 19 9 3 67 26 127
51 61 25 113 46 117 46 3 0 24 -46 46 -102z m1768 69 c22 -24 169 -416 159
-425 -2 -3 -57 10 -121 28 -212 59 -309 37 -463 -105 -45 -41 -82 -75 -84 -75
-2 0 -41 19 -87 43 -47 24 -96 46 -109 50 l-23 6 23 33 c13 18 71 80 129 137
90 90 97 98 45 59 -55 -42 -115 -101 -188 -186 -24 -29 -54 -44 -45 -24 13 31
156 189 215 237 78 63 90 86 22 40 -66 -43 -126 -102 -191 -189 -55 -73 -77
-89 -97 -70 -4 4 81 113 157 202 112 130 259 215 433 252 56 11 210 3 225 -13z
m-3638 -15 c9 -6 1 -34 -36 -113 -27 -57 -54 -120 -61 -139 -8 -19 -21 -53
-31 -75 -29 -67 -54 -176 -40 -172 7 2 70 -70 70 -80 0 -3 -7 -3 -15 1 -8 3
-15 1 -15 -4 0 -15 -38 -12 -63 4 -35 23 -97 47 -97 38 0 -5 18 -16 40 -25 43
-17 50 -35 24 -66 -15 -17 -19 -18 -58 -3 -22 9 -42 16 -43 17 -1 0 15 52 36
115 51 152 100 261 179 398 63 109 78 124 110 104z m37 -42 c-9 -17 -31 -75
-50 -128 -46 -133 -63 -172 -76 -172 -13 0 -9 15 52 168 48 120 77 177 86 168
3 -2 -3 -18 -12 -36z m5205 26 c0 -2 -8 -10 -17 -17 -16 -13 -17 -12 -4 4 13
16 21 21 21 13z m-5097 -13 c-7 -2 -21 -2 -30 0 -10 3 -4 5 12 5 17 0 24 -2
18 -5z m1367 -31 c0 -5 -11 -12 -25 -14 -21 -4 -25 -1 -25 18 0 12 6 24 12 26
14 5 38 -15 38 -30z m-606 8 c91 -35 152 -116 162 -219 8 -71 2 -99 -29 -135
l-24 -27 -17 40 c-10 21 -16 45 -13 53 4 9 8 5 12 -9 4 -13 11 -23 16 -23 5 0
6 -8 2 -17 -4 -13 -3 -15 5 -8 14 13 -13 190 -34 223 -17 26 -29 29 -19 5 4
-10 11 -40 15 -68 6 -44 4 -56 -21 -100 -55 -98 -125 -141 -207 -129 -26 3
-62 15 -79 26 -18 11 -33 15 -33 10 0 -9 48 -35 100 -56 8 -3 -1 -3 -20 0 -26
4 -31 3 -20 -5 8 -6 10 -11 4 -11 -22 0 -79 46 -108 88 -24 34 -31 55 -34 108
-4 57 -1 72 27 128 35 72 83 112 159 132 67 18 94 17 156 -6z m-765 -19 c16
-10 9 -52 -13 -73 -18 -19 -86 -11 -86 9 0 8 7 27 15 43 16 31 54 40 84 21z
m4795 -6 c6 -16 -1 -42 -17 -62 -7 -10 -15 -9 -36 2 -57 31 -58 33 -31 55 30
23 76 26 84 5z m113 -34 c62 -49 103 -130 110 -217 3 -35 1 -64 -4 -67 -6 -4
-22 6 -37 22 -25 27 -26 30 -15 80 10 50 10 55 -18 99 -16 26 -47 60 -70 77
-23 16 -42 33 -42 38 -2 17 31 4 76 -32z m-3542 -12 c-4 -5 -2 -16 3 -26 10
-17 -11 -63 -29 -63 -12 0 -11 57 1 65 6 3 10 15 10 26 0 11 5 17 10 14 6 -4
8 -11 5 -16z m2733 -11 c-8 -12 -23 -27 -34 -32 -10 -6 -21 -14 -24 -17 -20
-23 -143 -49 -153 -32 -3 5 8 8 26 6 25 -2 28 -1 12 6 -21 9 -24 8 74 27 16 3
35 12 41 20 7 7 16 12 20 9 4 -2 15 4 25 15 24 27 31 25 13 -2z m791 -18 c22
-22 41 -48 42 -57 0 -10 2 -33 3 -50 2 -18 0 -33 -5 -33 -5 0 -9 4 -9 10 0 5
-25 25 -55 45 -31 19 -58 42 -61 49 -6 16 22 76 35 76 5 0 27 -18 50 -40z
m-4914 -92 c-25 -52 -45 -100 -45 -107 0 -6 -10 -9 -22 -7 -13 3 -34 5 -48 5
-53 2 -56 13 -21 98 17 43 31 84 31 92 0 11 4 10 19 -3 11 -10 37 -20 58 -23
34 -4 40 -2 52 21 8 14 16 24 18 23 2 -2 -17 -47 -42 -99z m3833 79 c7 -8 7
-18 2 -27 -6 -10 -10 -11 -10 -3 0 7 -6 10 -12 8 -17 -6 -45 12 -34 22 5 4 11
3 13 -4 2 -7 11 -9 19 -6 13 5 13 7 2 14 -8 5 -9 9 -2 9 6 0 16 -6 22 -13z
m-3743 -26 c3 -5 1 -12 -5 -16 -5 -3 -10 1 -10 9 0 18 6 21 15 7z m4636 -18
c40 -23 49 -33 49 -55 0 -36 -13 -42 -49 -23 -17 8 -39 15 -51 15 -15 0 -20 6
-20 29 0 31 9 61 17 61 3 0 27 -12 54 -27z m-847 -2 c4 -5 -3 -7 -14 -4 -23 6
-26 13 -6 13 8 0 17 -4 20 -9z m975 -85 c15 -8 33 -22 41 -31 11 -13 9 -19
-10 -40 -30 -32 -44 -31 -58 0 -12 26 -16 85 -7 85 4 0 18 -6 34 -14z m-4569
-31 c10 -12 7 -20 -17 -43 -34 -31 -65 -86 -83 -149 -13 -43 -23 -50 -49 -34
-18 12 -10 44 41 154 37 78 44 87 68 87 15 0 33 -7 40 -15z m870 -3 c0 -5 -44
-39 -97 -77 -61 -42 -151 -121 -239 -209 -164 -164 -251 -288 -364 -514 -88
-175 -180 -333 -180 -309 0 10 24 64 54 120 30 56 69 137 87 181 36 88 164
305 232 393 113 148 262 283 417 382 64 40 90 50 90 33z m3579 -38 c31 -35 33
-54 5 -54 -31 0 -64 32 -64 61 0 39 21 37 59 -7z m-4913 -11 c55 -2 124 -21
124 -34 0 -7 -31 -8 -92 -4 -51 4 -94 8 -96 10 -2 1 0 15 4 31 5 19 9 24 13
14 4 -9 22 -16 47 -17z m2329 7 c-285 -41 -426 -88 -602 -202 -59 -39 -199
-166 -204 -186 -4 -18 -46 -71 -52 -67 -4 3 -5 2 -2 -1 2 -4 0 -15 -6 -26 -11
-20 -33 -14 -25 7 3 8 -4 17 -15 20 -25 8 -24 17 8 57 33 39 44 48 55 42 4 -3
5 3 1 12 -5 13 -3 16 10 11 11 -4 14 -2 11 7 -4 11 40 50 58 51 3 0 10 4 15 9
5 6 2 6 -7 1 -8 -5 -4 4 9 18 14 15 30 27 38 27 7 0 13 4 13 10 0 10 131 86
143 82 4 -1 7 2 7 7 0 13 132 74 205 96 63 18 201 32 320 32 68 0 69 0 20 -7z
m-1864 -23 c-10 -9 -11 -8 -5 6 3 10 9 15 12 12 3 -3 0 -11 -7 -18z m579 -17
c10 -24 10 -33 -1 -46 -18 -22 -68 -46 -80 -39 -5 4 -21 0 -34 -9 -20 -13 -29
-14 -61 -2 -37 12 -37 13 -13 19 38 10 112 53 139 82 30 32 35 31 50 -5z
m2708 -7 c100 -25 132 -41 132 -66 0 -9 -13 -11 -40 -9 -22 2 -40 8 -40 13 0
14 -88 10 -119 -6 -16 -8 -75 -63 -132 -124 l-105 -109 -44 33 c-25 18 -74 47
-109 66 l-64 33 65 62 c111 105 207 148 303 138 28 -3 96 -17 153 -31z m932
-32 c55 -11 105 -23 110 -26 6 -3 10 -36 10 -72 0 -65 0 -65 -57 -133 -32 -37
-89 -108 -128 -156 -38 -49 -92 -116 -121 -149 -73 -87 -179 -218 -189 -235
-20 -36 44 33 137 147 141 172 147 160 9 -16 -36 -46 -72 -93 -80 -105 -13
-19 -13 -20 1 -6 61 59 174 203 199 254 16 34 70 110 121 170 l93 110 5 -150
c3 -82 3 -160 0 -174 -4 -17 -27 -39 -70 -68 -89 -59 -365 -224 -420 -252 -25
-12 -53 -29 -62 -38 -15 -12 -18 -13 -18 -1 -1 8 -1 118 -1 245 l0 231 93 144
c52 79 116 179 143 222 47 74 50 77 86 77 21 0 83 -9 139 -19z m-1945 -31
c111 -29 282 -99 392 -159 249 -135 615 -413 967 -734 l75 -69 28 19 c15 11
91 55 168 98 77 43 199 113 270 155 173 104 312 174 409 207 74 25 94 28 221
28 132 0 145 -2 227 -32 132 -47 240 -115 339 -213 70 -69 94 -101 128 -170
22 -47 44 -99 47 -116 5 -29 3 -33 -38 -52 -39 -19 -41 -19 -20 -2 21 18 22
21 8 47 -19 37 -56 79 -67 76 -5 -2 -8 1 -6 6 1 5 0 9 -3 9 -3 0 -22 16 -42
35 -23 22 -64 44 -105 59 -60 20 -86 23 -213 23 -117 -1 -161 -5 -230 -23 -81
-22 -172 -52 -215 -72 -11 -5 -54 -24 -95 -43 -106 -48 -211 -131 -337 -264
-59 -64 -143 -152 -185 -196 l-78 -81 0 60 -1 59 -18 -52 c-11 -29 -29 -69
-41 -91 l-21 -38 -81 -2 -80 -3 7 63 c4 35 18 114 31 177 13 63 22 116 20 118
-10 10 -65 -164 -86 -267 -16 -84 -16 -84 -92 -65 l-65 17 -6 93 c-4 51 -13
127 -22 169 -17 82 -89 277 -80 216 25 -173 31 -300 19 -393 l-7 -46 -71 36
c-39 19 -113 64 -164 99 -82 57 -95 63 -115 53 -12 -7 -1 8 25 32 46 44 98
113 98 132 0 5 -18 -12 -39 -39 -42 -52 -99 -100 -108 -90 -4 3 -2 6 4 6 6 0
14 7 17 16 4 10 2 13 -6 8 -13 -8 -196 -18 -188 -11 3 3 22 8 43 11 21 3 52
13 69 22 36 19 115 90 130 117 11 22 14 23 -61 -25 -25 -15 -51 -28 -59 -28
-15 0 -80 50 -65 50 4 0 3 4 -2 8 -6 4 -26 27 -45 52 -79 102 -259 288 -357
368 -205 167 -512 342 -554 316 -7 -4 -9 -3 -6 3 8 13 -61 37 -148 52 -102 18
-284 24 -355 11 -62 -11 -164 -53 -176 -71 -5 -9 -4 -10 34 -14 43 -4 33 -12
-23 -18 -31 -3 -85 -19 -121 -36 -78 -37 -75 -25 19 75 153 164 384 287 607
324 41 6 82 13 90 15 8 2 85 2 170 0 119 -2 174 -8 235 -25z m2345 -32 c0 -12
-40 -20 -70 -13 -41 9 -53 27 -34 53 l15 21 44 -27 c25 -15 45 -30 45 -34z
m-4979 41 c25 -15 -6 -31 -78 -39 -61 -7 -70 -6 -85 12 -10 11 -18 24 -18 29
0 12 162 10 181 -2z m4762 -56 c-7 -3 -13 -13 -13 -23 0 -16 4 -17 30 -10 20
6 28 5 24 -1 -3 -6 0 -9 7 -8 8 2 30 -2 49 -9 19 -6 96 -21 170 -32 269 -42
323 -73 339 -197 8 -52 7 -54 -13 -49 -58 16 -166 28 -211 22 -115 -13 -324
-91 -386 -143 l-29 -25 0 44 c0 23 -3 100 -7 171 -5 112 -4 127 10 127 9 0 18
4 21 9 3 4 -7 6 -22 3 -27 -5 -27 -5 -8 17 11 11 15 21 10 21 -5 0 -2 5 6 10
9 6 10 10 3 10 -7 0 -12 20 -12 57 l0 56 22 -23 c15 -16 18 -24 10 -27z
m-4185 19 c13 -9 -1 -31 -86 -127 -41 -47 -42 -48 -62 -30 -21 19 -20 19 52
92 77 78 76 77 96 65z m3132 -23 c113 -16 116 -17 131 -46 14 -26 50 -84 156
-245 24 -37 49 -70 54 -74 6 -3 9 -87 9 -207 l-1 -202 -152 150 c-84 82 -188
176 -232 208 -44 31 -111 81 -150 109 -38 28 -87 62 -108 74 l-39 22 38 43
c105 121 179 190 199 184 11 -3 54 -10 95 -16z m1386 -21 c28 -27 30 -37 7
-33 -10 2 -40 4 -68 5 l-50 1 40 24 c22 14 42 25 44 25 2 0 14 -10 27 -22z
m-4328 -28 l44 0 -51 -62 c-28 -35 -76 -100 -107 -145 -31 -46 -59 -83 -64
-83 -4 0 -19 18 -34 40 -20 30 -23 40 -11 40 8 0 19 8 24 19 8 14 5 23 -13 40
-12 11 -28 21 -34 21 -15 0 -15 -23 0 -38 6 -6 9 -15 5 -18 -8 -8 -46 36 -47
54 0 8 32 48 70 91 l71 78 52 -18 c29 -10 72 -18 95 -19z m-566 -1 c77 -17
144 -54 211 -118 56 -53 157 -188 157 -210 0 -15 -33 -81 -39 -81 -3 1 -16 22
-28 49 -64 136 -185 258 -300 304 -102 40 -246 31 -359 -23 -43 -21 -84 -26
-84 -11 0 16 69 53 143 77 82 26 210 32 299 13z m5218 -20 c58 -13 122 -23
143 -23 30 -1 39 -5 42 -21 10 -48 35 -271 35 -313 -1 -40 -2 -45 -13 -30 -13
16 -187 108 -205 108 -14 0 -22 26 -22 71 0 102 -72 170 -222 209 -139 36 76
35 242 -1z m-5660 -44 c-7 -8 -17 -15 -22 -15 -6 0 -5 7 2 15 7 8 17 15 22 15
6 0 5 -7 -2 -15z m442 -25 c100 -37 203 -148 273 -293 l28 -59 -23 -71 -24
-72 -6 65 c-4 36 -14 89 -24 117 -10 29 -14 58 -10 64 4 8 3 9 -5 5 -7 -5 -13
3 -17 23 -4 17 -10 31 -14 31 -4 0 -13 14 -20 30 -7 17 -17 30 -22 30 -5 0 -7
4 -4 9 9 15 -108 97 -166 118 -35 12 -82 18 -138 18 -72 0 -94 -4 -144 -28
-32 -15 -61 -25 -64 -22 -6 6 79 45 123 56 54 14 195 3 257 -21z m-538 -35
c38 -25 73 -45 77 -45 24 0 4 -20 -28 -29 -71 -20 -92 -9 -56 31 15 17 14 18
-20 18 -42 0 -54 -23 -35 -65 10 -23 17 -26 47 -22 20 2 57 10 83 17 47 14 48
14 85 -16 66 -54 253 -287 240 -300 -4 -4 -201 -34 -221 -34 -7 0 -19 14 -26
30 -7 17 -19 30 -26 30 -17 0 -17 -2 -2 -37 25 -60 28 -61 135 -47 54 7 115
13 136 14 l38 0 69 -142 c75 -158 131 -314 185 -518 48 -185 50 -177 -32 -184
-70 -6 -129 -9 -150 -7 -7 1 -13 12 -13 26 0 22 -24 45 -35 34 -5 -5 11 -88
18 -96 3 -3 61 0 127 7 100 11 123 11 130 0 8 -13 34 -199 28 -205 -3 -3 -291
-23 -295 -21 -1 1 -11 62 -23 136 -51 314 -156 637 -285 876 -99 184 -188 304
-344 467 -46 48 -82 89 -80 91 6 6 148 33 179 35 15 1 54 -18 94 -44z m2001
-95 c-3 -5 -11 -10 -16 -10 -6 0 -7 5 -4 10 3 6 11 10 16 10 6 0 7 -4 4 -10z
m-1565 -36 c0 -21 -4 -33 -10 -29 -17 10 -11 65 7 65 2 0 3 -16 3 -36z m-38 1
c3 -14 1 -28 -3 -31 -5 -3 -9 9 -9 25 0 38 6 40 12 6z m1721 18 c-7 -2 -19 -2
-25 0 -7 3 -2 5 12 5 14 0 19 -2 13 -5z m170 0 c-18 -2 -48 -2 -65 0 -18 2 -4
4 32 4 36 0 50 -2 33 -4z m154 -19 c-3 -3 -12 -4 -19 -1 -8 3 -5 6 6 6 11 1
17 -2 13 -5z m140 -40 c-3 -3 -12 -4 -19 -1 -8 3 -5 6 6 6 11 1 17 -2 13 -5z
m-2029 -26 c40 -5 74 -38 77 -75 1 -15 3 -44 5 -63 l3 -35 7 35 c7 34 7 34 8
5 0 -16 -4 -43 -8 -60 -7 -28 -8 -29 -10 -5 -1 23 -2 24 -10 5 -7 -14 -8 -10
-4 17 7 41 -9 99 -38 141 -23 32 -38 35 -38 8 0 -19 -42 -107 -60 -125 -4 -4
-13 1 -19 12 -6 11 -17 26 -24 34 -7 7 -27 34 -45 60 -22 32 -28 48 -19 52 11
5 97 2 175 -6z m1136 -58 c31 -39 56 -73 56 -76 0 -3 -26 -37 -57 -74 -40 -47
-60 -65 -66 -57 -6 8 -7 6 -3 -6 3 -10 -9 -40 -31 -74 -33 -52 -67 -120 -106
-215 l-15 -37 -71 28 c-39 15 -74 30 -77 34 -9 9 60 180 101 252 19 33 44 77
55 98 12 22 25 35 32 31 7 -5 8 -3 3 5 -8 14 33 63 46 55 5 -3 6 1 4 8 -4 11
58 98 70 98 1 0 28 -32 59 -70z m5041 29 c363 -135 613 -656 565 -1179 -12
-131 -33 -237 -76 -380 -35 -114 -44 -120 -22 -13 10 49 16 100 14 115 -3 15
-1 30 4 33 6 3 10 12 10 18 0 8 -3 7 -9 -2 -7 -11 -10 -9 -16 8 -4 13 -11 18
-18 14 -7 -4 -16 -8 -22 -8 -5 0 -11 -16 -12 -35 -2 -19 -8 -39 -14 -45 -7 -7
-9 -3 -5 15 4 14 13 70 21 125 27 184 16 351 -36 540 -37 137 -93 237 -171
309 -32 30 -58 59 -58 66 0 7 9 2 20 -11 27 -33 25 -16 -4 29 -123 192 -361
226 -526 75 -29 -27 -36 -28 -43 -9 -3 8 -29 46 -56 84 -45 62 -51 75 -51 120
0 50 1 52 45 78 53 30 133 62 190 74 66 15 203 4 270 -21z m-6792 -51 c265
-359 448 -867 498 -1381 18 -186 7 -642 -20 -792 -25 -147 -59 -272 -104 -393
-37 -97 -114 -241 -134 -249 -6 -2 -46 11 -88 31 -54 25 -74 39 -69 48 4 7 25
39 46 71 66 98 133 260 173 417 107 424 94 883 -40 1395 -85 328 -184 564
-333 795 l-54 84 26 23 c15 13 31 23 36 23 6 0 34 -33 63 -72z m2792 34 c-3
-3 -11 0 -18 7 -9 10 -8 11 6 5 10 -3 15 -9 12 -12z m-2146 -43 c18 -51 13
-76 -20 -114 -25 -28 -34 -33 -45 -24 -15 12 -19 41 -7 53 10 9 33 78 33 99 0
29 27 19 39 -14z m0 -138 c-13 -16 -28 -30 -32 -30 -5 -1 4 14 20 32 34 41 44
40 12 -2z m23 -29 c-7 -2 -12 -11 -12 -19 0 -9 -3 -13 -7 -10 -3 4 0 19 8 33
8 16 15 21 18 13 2 -7 -1 -15 -7 -17z m2433 -22 c10 -11 16 -20 13 -20 -3 0
-13 9 -23 20 -10 11 -16 20 -13 20 3 0 13 -9 23 -20z m-2333 -117 c-10 -16
-21 -35 -24 -43 -2 -8 -7 -10 -10 -4 -8 12 29 74 44 74 5 0 1 -12 -10 -27z
m-1857 7 c3 -6 -1 -7 -9 -4 -18 7 -21 14 -7 14 6 0 13 -4 16 -10z m7103 -55
c106 -47 85 -53 -108 -29 -53 6 -54 6 -35 -11 l20 -17 -20 7 c-50 18 -161 16
-235 -3 -41 -11 -76 -19 -78 -17 -6 5 147 77 193 90 77 22 187 14 263 -20z
m-7738 21 c0 -2 -8 -10 -17 -17 -16 -13 -17 -12 -4 4 13 16 21 21 21 13z m730
-38 c0 -12 -6 -9 -26 13 -19 22 -19 22 4 8 12 -8 22 -17 22 -21z m6600 12 c-8
-5 -19 -10 -25 -10 -5 0 -3 5 5 10 8 5 20 10 25 10 6 0 3 -5 -5 -10z m-40 -14
c0 -3 -4 -8 -10 -11 -5 -3 -10 -1 -10 4 0 6 5 11 10 11 6 0 10 -2 10 -4z
m1365 -6 l20 -9 -20 0 c-11 0 -29 4 -40 9 l-20 9 20 0 c11 0 29 -4 40 -9z
m-7875 -35 c19 -19 32 -35 29 -35 -3 0 -20 16 -39 35 -19 19 -32 35 -29 35 3
0 20 -16 39 -35z m1930 16 c47 -9 141 -31 208 -47 l124 -29 -6 -30 c-3 -16
-12 -61 -20 -100 -40 -180 -43 -414 -9 -638 24 -158 38 -125 23 52 -21 230 -4
496 40 660 12 46 15 47 116 9 l51 -18 -25 -113 c-22 -99 -25 -135 -25 -307 -1
-148 3 -213 16 -269 10 -41 15 -76 12 -79 -8 -8 -175 -72 -187 -72 -5 0 -24
-6 -41 -14 -66 -30 -159 -67 -162 -64 -6 7 -46 199 -65 311 -25 151 -26 189
-6 257 18 57 16 145 -4 221 -20 75 -145 179 -215 179 -32 0 -31 6 5 63 34 55
40 56 170 28z m4480 -41 c-14 -11 -29 -20 -35 -20 -5 0 4 9 20 20 38 25 48 25
15 0z m-6798 -30 c20 -10 38 -18 40 -17 1 1 3 1 2 0 0 -2 20 -24 46 -51 87
-90 131 -235 112 -365 -11 -71 -18 -87 -130 -303 -53 -102 -82 -214 -82 -315
l0 -79 -42 -21 c-75 -38 -172 -106 -218 -153 -24 -25 -49 -46 -55 -46 -7 0
-36 13 -66 30 -70 38 -122 40 -155 4 -25 -26 -33 -61 -12 -48 7 4 8 3 4 -5 -4
-6 -12 -9 -17 -6 -5 4 -9 -6 -9 -20 0 -22 -4 -26 -18 -20 -53 20 -68 18 -82
-15 -7 -17 -16 -27 -21 -23 -4 4 -19 64 -33 133 -26 128 -46 387 -28 361 7 -9
12 12 17 70 9 113 49 296 82 379 3 8 8 24 10 35 2 10 7 22 12 25 5 3 12 16 16
30 4 14 13 31 19 39 6 8 18 28 26 45 86 175 263 335 395 357 58 9 145 0 187
-21z m4733 -28 c-3 -3 -11 0 -18 7 -9 10 -8 11 6 5 10 -3 15 -9 12 -12z m2004
16 c-2 -2 -17 -14 -34 -28 l-30 -25 24 28 c14 15 29 27 34 27 6 0 8 -1 6 -2z
m-2239 -62 c163 -67 301 -225 345 -393 21 -79 11 -79 -14 0 -21 68 -55 142
-75 162 -6 7 -22 26 -35 43 -13 17 -28 29 -34 25 -5 -3 -7 -1 -4 5 4 5 -8 22
-25 36 -18 14 -41 32 -51 41 -42 37 -148 83 -217 95 -57 10 -89 10 -153 0 -97
-15 -210 -57 -200 -74 4 -7 1 -7 -9 1 -8 7 -18 10 -21 7 -14 -14 6 -24 46 -24
58 -1 113 -15 132 -34 9 -9 20 -16 25 -16 21 0 82 -69 110 -124 27 -54 30 -69
30 -152 0 -51 -4 -96 -10 -99 -5 -3 -10 -16 -10 -28 0 -25 -23 -57 -87 -123
-23 -23 -38 -46 -35 -50 4 -4 -1 -4 -10 -1 -10 4 -18 3 -18 -1 0 -4 -12 -9
-27 -10 -15 -1 -29 -6 -32 -11 -12 -17 -146 -21 -197 -6 -55 16 -147 78 -136
90 4 5 2 5 -5 2 -15 -9 20 -113 48 -143 10 -11 19 -26 19 -33 0 -7 12 -22 26
-33 14 -12 30 -31 35 -44 4 -13 14 -23 21 -22 7 2 12 -1 13 -7 2 -20 26 -55
35 -50 5 3 11 1 15 -5 4 -6 10 -8 15 -5 4 3 13 -2 20 -10 7 -8 9 -15 4 -16 -5
0 11 -8 36 -18 24 -10 46 -24 48 -30 6 -18 -62 13 -117 53 -120 89 -206 215
-239 348 -40 161 -34 268 23 385 60 123 217 246 366 288 38 10 88 14 169 11
97 -2 125 -7 180 -30z m-5067 9 c-3 -9 -8 -14 -10 -11 -3 3 -2 9 2 15 9 16 15
13 8 -4z m1061 -15 c-6 -6 -10 -3 -10 10 0 13 4 16 10 10 7 -7 7 -13 0 -20z
m1704 11 c45 -23 84 -56 76 -64 -4 -3 -27 5 -53 18 -25 14 -56 25 -68 25 -13
0 -23 5 -23 11 0 5 -4 8 -9 5 -5 -3 -11 1 -15 9 -8 22 46 20 92 -4z m4432 -36
c-7 -8 -17 -15 -23 -15 -6 0 -2 7 9 15 25 19 30 19 14 0z m879 2 c-2 -1 -13
-9 -24 -17 -19 -14 -19 -14 -6 3 7 9 18 17 24 17 6 0 8 -1 6 -3z m-399 -139
c41 -104 60 -227 59 -372 -1 -172 -15 -189 -22 -26 -6 142 -22 238 -63 373
-13 45 -26 91 -29 101 -2 11 -9 24 -15 30 -5 5 -10 15 -10 21 1 25 53 -57 80
-127z m688 112 c-7 -10 -14 -17 -17 -15 -4 4 18 35 25 35 2 0 -1 -9 -8 -20z
m-2908 -33 c13 -5 13 -6 0 -6 -8 -1 -28 11 -45 25 l-30 26 30 -20 c17 -10 37
-22 45 -25z m2570 29 c0 -2 -7 -7 -16 -10 -8 -3 -12 -2 -9 4 6 10 25 14 25 6z
m-880 -9 c0 -2 -15 -16 -32 -33 l-33 -29 29 33 c28 30 36 37 36 29z m-4365
-27 c3 -5 -1 -10 -10 -10 -9 0 -13 5 -10 10 3 6 8 10 10 10 2 0 7 -4 10 -10z
m5148 -5 c4 -8 2 -17 -3 -20 -6 -4 -10 3 -10 14 0 25 6 27 13 6z m-8007 -36
c-9 -19 -15 -29 -16 -22 0 15 22 64 27 60 2 -2 -3 -19 -11 -38z m2984 -3 c0
-6 -7 -1 -15 10 -8 10 -15 23 -15 28 0 6 7 1 15 -10 8 -10 15 -23 15 -28z
m-103 20 c-4 -11 -1 -13 11 -9 13 5 14 3 6 -6 -9 -10 -17 -10 -32 -2 -11 6
-36 12 -54 13 -29 1 -28 2 12 8 25 4 49 8 54 8 4 1 6 -5 3 -12z m986 -82 c-13
-59 -18 -124 -18 -254 0 -151 3 -187 23 -260 25 -94 84 -225 133 -298 48 -70
176 -198 243 -244 142 -98 333 -168 521 -193 l90 -12 -60 -8 c-35 -5 -120 -3
-206 3 -231 18 -371 53 -539 135 -95 46 -115 60 -210 156 -88 88 -114 122
-152 197 -65 125 -92 225 -92 344 -1 91 1 100 36 170 20 41 67 110 103 154 36
43 82 105 103 136 20 32 38 57 40 56 1 -2 -6 -38 -15 -82z m-2629 60 c3 -8 2
-12 -4 -9 -6 3 -10 10 -10 16 0 14 7 11 14 -7z m5875 -32 c-19 -21 -36 -37
-38 -35 -5 3 59 73 67 73 2 0 -11 -17 -29 -38z m1825 12 c3 -8 2 -12 -4 -9 -6
3 -10 10 -10 16 0 14 7 11 14 -7z m-6080 -13 c17 -19 17 -20 -14 -36 -36 -19
-50 -10 -50 33 0 28 39 30 64 3z m-1596 -16 c-3 -3 -9 2 -12 12 -6 14 -5 15 5
6 7 -7 10 -15 7 -18z m6902 -20 c0 -124 -109 -635 -136 -635 -19 0 -18 19 12
140 35 147 63 315 71 431 6 95 7 99 30 99 20 0 23 -5 23 -35z m821 -7 c11 -21
11 -22 -4 -9 -10 7 -17 17 -17 22 0 15 9 10 21 -13z m-9026 -28 c-9 -41 -17
-33 -9 9 4 17 9 30 11 27 3 -2 2 -19 -2 -36z m1319 24 c3 -8 2 -12 -4 -9 -6 3
-10 10 -10 16 0 14 7 11 14 -7z m1704 -25 c-2 -6 -7 -10 -11 -10 -4 1 -34 -12
-67 -29 -34 -17 -65 -28 -70 -25 -23 14 -7 42 43 71 48 29 54 30 80 17 16 -8
27 -19 25 -24z m2770 16 c-8 -8 -89 -8 -97 0 -7 7 10 9 45 7 31 -2 54 -5 52
-7z m2852 2 c0 -2 -10 -12 -22 -23 l-23 -19 19 23 c18 21 26 27 26 19z m-1570
-20 c0 -2 -10 -12 -22 -23 l-23 -19 19 23 c18 21 26 27 26 19z m230 -80 c53
-65 105 -161 115 -212 5 -30 5 -30 -7 -5 -6 14 -24 53 -40 88 -16 35 -35 62
-43 62 -8 0 -14 3 -13 8 4 20 -73 122 -93 122 -14 0 -79 -72 -73 -81 3 -5 -2
-6 -11 -3 -9 4 -15 3 -14 -2 4 -22 -2 -35 -13 -28 -7 5 -9 2 -5 -9 4 -11 2
-14 -8 -11 -7 3 -16 -3 -19 -13 -3 -10 -20 -26 -37 -35 -18 -11 -27 -22 -23
-29 4 -8 3 -9 -5 -5 -6 4 -14 0 -17 -8 -3 -9 -10 -13 -15 -10 -5 3 -9 -2 -9
-10 0 -9 -7 -16 -15 -16 -8 0 -15 -7 -15 -15 0 -8 -10 -20 -22 -26 -34 -17
-78 -61 -78 -76 0 -8 -4 -11 -10 -8 -5 3 -33 -10 -61 -30 -28 -19 -56 -35 -61
-35 -5 0 -6 -5 -2 -12 4 -6 3 -8 -4 -4 -6 3 -26 -3 -44 -15 -18 -12 -25 -19
-16 -16 10 4 20 2 23 -3 4 -6 1 -10 -6 -10 -6 0 -17 -6 -23 -13 -6 -7 -10 -11
-9 -8 5 8 -27 31 -39 27 -50 -15 -51 -16 -38 -32 10 -11 10 -18 2 -26 -7 -7
-12 -16 -12 -22 0 -5 3 -6 7 -3 3 4 12 2 19 -4 9 -7 16 -4 28 12 8 12 12 27 9
32 -3 6 -1 7 4 4 6 -4 30 2 54 12 24 10 71 22 104 25 53 5 63 3 88 -17 28 -22
29 -24 17 -67 -15 -59 -33 -100 -43 -100 -5 0 -5 -4 -2 -10 3 -5 0 -10 -8 -10
-8 0 -22 -8 -31 -19 -9 -10 -43 -26 -74 -36 -31 -9 -63 -18 -70 -21 -9 -3 -10
-9 -3 -23 11 -20 98 -111 106 -111 28 1 35 -1 30 -10 -3 -5 -2 -10 4 -10 5 0
12 6 15 13 3 6 4 3 3 -7 -2 -17 8 -22 73 -33 73 -13 185 -9 176 6 -3 4 12 7
32 6 23 -1 47 6 64 18 14 11 32 17 40 14 20 -7 -91 -56 -156 -68 -108 -20
-238 17 -328 91 -75 62 -146 207 -167 340 -8 47 -6 52 13 60 204 78 267 122
491 341 147 144 183 175 197 168 10 -5 40 -37 68 -72z m1775 -16 c4 -14 3 -21
-3 -17 -5 3 -12 18 -15 33 -3 16 -8 37 -11 48 -4 11 0 7 8 -10 7 -16 17 -41
21 -54z m-7731 53 c3 -8 2 -12 -4 -9 -6 3 -10 10 -10 16 0 14 7 11 14 -7z
m4114 -9 c-3 -3 -9 2 -12 12 -6 14 -5 15 5 6 7 -7 10 -15 7 -18z m-5489 -24
c-6 -18 -13 -30 -15 -28 -2 2 1 18 7 36 6 18 13 30 15 28 2 -2 -1 -18 -7 -36z
m3026 18 c-11 -11 -41 -36 -67 -54 -42 -30 -48 -32 -48 -16 0 12 20 31 58 54
66 41 83 46 57 16z m4000 -18 c-16 -16 -32 -26 -35 -24 -6 5 47 53 58 53 4 0
-6 -13 -23 -29z m1565 15 c0 -2 -8 -10 -17 -17 -16 -13 -17 -12 -4 4 13 16 21
21 21 13z m-2766 -32 c3 -8 2 -12 -4 -9 -6 3 -10 10 -10 16 0 14 7 11 14 -7z
m3113 2 c12 -1 21 -4 20 -7 -1 -3 12 -18 29 -32 113 -95 189 -435 148 -657 -5
-29 -39 -47 -107 -56 -39 -6 -55 -2 -102 21 -77 39 -134 106 -202 236 -22 41
-45 95 -51 120 -51 204 57 407 203 383 22 -4 50 -7 62 -8z m-5901 -8 c4 -7 4
-10 -1 -6 -4 4 -22 -8 -38 -28 -37 -42 -71 -64 -65 -41 1 9 23 31 48 51 53 41
47 39 56 24z m3934 -21 c0 -2 -17 -19 -37 -38 l-38 -34 34 38 c33 34 41 42 41
34z m-1095 -17 c3 -6 -1 -7 -9 -4 -18 7 -21 14 -7 14 6 0 13 -4 16 -10z m3248
-10 c3 -11 1 -18 -4 -14 -5 3 -9 12 -9 20 0 20 7 17 13 -6z m-6936 -12 c-3 -8
-6 -5 -6 6 -1 11 2 17 5 13 3 -3 4 -12 1 -19z m3724 -15 c13 -16 12 -17 -3 -4
-10 7 -18 15 -18 17 0 8 8 3 21 -13z m2198 -65 c-25 -151 -43 -242 -59 -290
-14 -45 -21 -54 -43 -56 -29 -4 -39 21 -13 31 8 3 17 25 21 49 31 199 71 338
94 324 5 -3 4 -29 0 -58z m-1240 23 c-13 -11 -26 -18 -28 -15 -2 2 7 12 20 23
13 11 26 18 28 15 2 -2 -7 -12 -20 -23z m2258 7 c-3 -8 -6 -5 -6 6 -1 11 2 17
5 13 3 -3 4 -12 1 -19z m-3581 -45 c-11 -11 -19 6 -11 24 8 17 8 17 12 0 3
-10 2 -21 -1 -24z m-2521 -25 c3 -18 14 -91 25 -163 10 -71 26 -161 34 -200 8
-38 12 -73 10 -77 -10 -15 -94 -59 -102 -54 -5 3 -12 47 -16 98 -6 79 -19 203
-41 386 l-5 42 45 0 c42 0 44 -2 50 -32z m2552 -51 c-4 -46 -16 -112 -28 -148
-22 -67 -74 -159 -91 -159 -5 0 -7 -4 -4 -9 10 -15 -109 -117 -174 -149 -120
-61 -280 -77 -401 -41 -62 19 -35 29 34 12 34 -8 85 -15 112 -15 60 0 179 25
220 46 17 9 35 16 42 16 6 0 19 10 27 22 9 12 16 19 16 16 0 -4 11 -1 25 6 32
17 136 147 130 164 -2 6 0 12 5 12 29 0 70 137 70 238 0 47 4 72 11 72 9 0 10
-24 6 -83z m1050 61 c-3 -8 -6 -5 -6 6 -1 11 2 17 5 13 3 -3 4 -12 1 -19z
m-592 2 c3 -6 -1 -7 -9 -4 -18 7 -21 14 -7 14 6 0 13 -4 16 -10z m111 -26
c-10 -14 -20 -23 -23 -20 -3 3 2 12 11 21 9 9 16 21 16 27 0 6 3 8 6 5 4 -4
-1 -18 -10 -33z m664 32 c0 -2 -7 -7 -16 -10 -8 -3 -12 -2 -9 4 6 10 25 14 25
6z m-328 -54 c1 -37 4 -42 25 -42 12 0 23 -4 23 -9 0 -4 12 -6 26 -3 18 3 31
17 45 46 10 22 16 30 13 16 -10 -42 -33 -69 -62 -75 -15 -4 -44 -10 -64 -15
-26 -5 -38 -4 -38 3 0 18 24 127 27 123 2 -1 4 -21 5 -44z m-201 5 c-6 -14 -8
-35 -6 -46 2 -14 -1 -21 -11 -21 -8 0 -14 3 -14 7 0 13 33 93 37 90 2 -3 -1
-16 -6 -30z m105 -50 c-13 -33 -17 -35 -51 -32 -20 2 -40 6 -43 11 -4 4 7 4
23 1 40 -7 49 -1 66 47 8 21 15 32 17 23 2 -8 -4 -31 -12 -50z m2034 43 c0 -5
-5 -10 -11 -10 -5 0 -7 5 -4 10 3 6 8 10 11 10 2 0 4 -4 4 -10z m-987 -71 c-5
-5 -10 9 -10 33 l-2 43 10 -34 c6 -19 7 -37 2 -42z m-773 46 c-26 -14 -36 -13
-27 2 3 5 16 9 29 10 l23 2 -25 -14z m809 -127 c1 -37 -2 -69 -6 -71 -5 -3 -8
45 -9 106 -1 80 1 100 7 72 4 -22 8 -70 8 -107z m-906 115 c-7 -2 -19 -2 -25
0 -7 3 -2 5 12 5 14 0 19 -2 13 -5z m347 -23 c0 -5 -5 -10 -11 -10 -5 0 -7 5
-4 10 3 6 8 10 11 10 2 0 4 -4 4 -10z m1461 -23 c-10 -9 -11 -8 -5 6 3 10 9
15 12 12 3 -3 0 -11 -7 -18z m-395 -29 c-34 -118 -44 -173 -33 -180 6 -4 39
-10 73 -13 55 -6 61 -9 56 -27 -4 -18 -10 -20 -66 -14 -34 4 -81 17 -106 29
l-45 22 2 52 c2 64 13 86 56 107 19 8 40 22 47 31 18 21 23 19 16 -7z m-1226
-78 c0 -5 -4 -10 -10 -10 -5 0 -10 5 -10 10 0 6 5 10 10 10 6 0 10 -4 10 -10z
m-3987 -13 c18 -8 36 -14 41 -15 10 0 26 -22 26 -36 0 -4 -6 -6 -12 -4 -8 3
-22 -14 -34 -39 l-21 -43 23 -6 c50 -13 59 -3 59 63 0 34 5 67 11 73 9 9 13
-11 19 -75 4 -48 5 -88 3 -90 -1 -2 -19 -6 -38 -9 -19 -3 -62 -10 -95 -16 -83
-14 -155 -13 -159 3 -3 6 -7 51 -10 100 -5 67 -3 87 7 87 9 0 11 -12 9 -40 -2
-23 -1 -62 3 -87 5 -37 9 -44 16 -30 6 10 23 17 42 18 18 1 43 5 57 9 24 8 24
8 2 9 -12 1 -38 8 -57 15 -32 14 -35 19 -35 54 0 41 11 56 45 65 37 9 65 7 98
-6z m1828 -39 c11 -21 11 -22 -4 -9 -10 7 -17 17 -17 22 0 15 9 10 21 -13z
m4706 -20 c-3 -7 -5 -2 -5 12 0 14 2 19 5 13 2 -7 2 -19 0 -25z m-5709 -46
c38 -119 115 -235 232 -352 90 -89 122 -114 210 -161 194 -104 367 -148 613
-156 189 -6 181 -3 193 -90 l6 -50 -53 -6 c-149 -18 -396 2 -443 36 -25 18
-46 22 -106 23 -84 2 -130 17 -275 92 -163 84 -309 212 -407 355 -46 68 -135
249 -144 293 -6 29 -4 31 58 56 34 14 70 27 79 27 10 1 22 -20 37 -67z m3853
-13 c-12 -39 -24 -69 -27 -66 -3 3 5 37 17 76 11 40 24 70 26 67 3 -3 -5 -37
-16 -77z m1053 65 c3 -8 2 -12 -4 -9 -6 3 -10 10 -10 16 0 14 7 11 14 -7z
m-5099 -101 c72 -224 223 -417 455 -586 14 -10 19 -15 11 -11 -9 5 -12 3 -7
-4 4 -7 13 -12 21 -12 8 0 17 -5 21 -12 4 -7 3 -8 -4 -4 -7 4 -12 2 -12 -3 0
-6 -15 -11 -33 -11 -20 0 -55 -13 -89 -33 l-55 -34 -65 48 c-67 48 -175 163
-170 180 1 5 -5 9 -14 9 -21 0 -53 36 -109 122 -60 91 -77 126 -69 140 4 6 3
8 -3 5 -11 -7 -67 108 -77 159 -7 30 -6 30 81 66 48 20 90 37 93 37 3 1 14
-25 25 -56z m4010 27 c-4 -12 -9 -19 -12 -17 -3 3 -2 15 2 27 4 12 9 19 12 17
3 -3 2 -15 -2 -27z m-5508 -22 c-3 -8 -6 -5 -6 6 -1 11 2 17 5 13 3 -3 4 -12
1 -19z m5994 1 c23 -11 70 -23 109 -26 60 -5 67 -8 63 -24 -4 -16 -15 -19 -59
-19 -90 0 -190 43 -177 76 7 19 16 18 64 -7z m-1584 -46 c-3 -10 -5 -2 -5 17
0 19 2 27 5 18 2 -10 2 -26 0 -35z m-3111 -91 c29 -86 29 -100 7 -119 -10 -8
-13 -12 -6 -9 7 4 9 -1 6 -14 -3 -11 -7 -20 -9 -20 -10 0 -53 103 -68 163 -18
72 -16 84 18 96 16 7 22 4 24 -8 2 -9 14 -49 28 -89z m4170 8 c-27 -39 -67
-86 -89 -104 -40 -34 -61 -41 -39 -13 7 8 9 17 5 21 -4 4 -1 5 7 1 17 -6 75
60 65 74 -3 5 0 13 6 17 8 4 9 3 5 -4 -4 -7 -3 -12 2 -12 5 0 23 23 41 51 18
27 36 48 39 45 3 -4 -16 -38 -42 -76z m502 58 c23 -13 42 -26 42 -30 0 -12
-75 -179 -105 -233 -69 -126 -181 -282 -249 -344 l-25 -24 -36 27 c-19 15 -35
29 -35 32 0 3 23 31 51 62 102 115 219 313 284 485 10 26 20 47 24 47 3 0 25
-10 49 -22z m-5715 -15 c-25 -2 -43 -9 -43 -16 0 -9 -22 -11 -76 -9 -42 2 -74
6 -71 8 6 6 145 21 192 21 l40 0 -42 -4z m944 -54 c30 -125 157 -346 282 -491
26 -30 35 -62 26 -86 -3 -10 -19 7 -45 47 -22 33 -42 61 -45 61 -4 0 -3 -4 0
-10 3 -5 1 -10 -4 -10 -6 0 -11 4 -11 9 0 5 -34 60 -76 122 -74 109 -151 259
-176 340 -10 35 -9 41 8 54 10 8 21 15 24 15 3 0 11 -23 17 -51z m-1920 35
c-3 -3 -12 -4 -19 -1 -8 3 -5 6 6 6 11 1 17 -2 13 -5z m6860 -8 c1 -1 0 -12
-4 -24 l-6 -23 -21 23 -21 23 -3 -25 c-2 -14 -8 -31 -14 -37 -6 -7 -7 -21 -3
-30 6 -17 7 -17 21 1 26 37 26 7 -2 -56 -15 -35 -31 -67 -36 -72 -13 -16 -9
22 7 61 13 32 14 55 0 42 -2 -3 -28 -61 -58 -129 -56 -130 -134 -263 -148
-254 -5 3 -6 -2 -3 -10 4 -10 1 -16 -8 -16 -12 0 -46 -43 -37 -47 2 -1 -12
-19 -32 -40 -20 -21 -42 -48 -50 -60 -15 -21 -15 -21 -38 21 l-22 43 88 110
c98 122 177 256 244 410 l44 102 50 -6 c28 -3 51 -6 52 -7z m-6917 -6 c-8 -5
-19 -10 -25 -10 -5 0 -3 5 5 10 8 5 20 10 25 10 6 0 3 -5 -5 -10z m1588 -7 c2
-8 -5 -13 -16 -13 -48 0 -52 -7 -52 -99 0 -111 -6 -131 -36 -131 l-24 0 0 130
0 131 62 -3 c38 -2 63 -8 66 -15z m-735 -10 c-22 -4 -23 -8 -23 -126 0 -118
-19 -287 -39 -355 -47 -158 -261 -315 -510 -374 -62 -15 -91 -27 -91 -36 0 -9
-9 -4 -21 12 -12 15 -20 28 -18 30 2 2 37 11 77 20 192 42 366 175 441 337 21
46 46 113 55 149 19 81 46 252 46 301 0 20 3 39 7 42 3 4 27 6 52 6 25 -1 36
-4 24 -6z m85 0 c-10 -2 -28 -2 -40 0 -13 2 -5 4 17 4 22 1 32 -1 23 -4z
m4229 -40 c-3 -10 -5 -4 -5 12 0 17 2 24 5 18 2 -7 2 -21 0 -30z m438 29 c6
-4 11 -13 13 -21 2 -11 0 -12 -11 -3 -8 7 -17 9 -20 6 -9 -9 -28 6 -22 17 7
11 26 12 40 1z m-3832 -8 c4 -4 3 -12 0 -18 -4 -6 -6 -27 -4 -48 3 -45 -17
-257 -30 -318 -6 -24 -15 -48 -22 -52 -7 -4 -70 -8 -141 -8 l-129 0 6 68 c4
37 7 81 7 98 0 26 5 33 25 36 13 3 22 1 19 -3 -3 -5 3 -9 14 -9 10 0 19 6 20
13 1 6 6 35 11 62 5 28 10 78 10 112 l1 62 63 4 c125 7 144 7 150 1z m3017 -8
c0 -2 -8 -10 -17 -17 -16 -13 -17 -12 -4 4 13 16 21 21 21 13z m-4334 -27 c19
-22 19 -22 -3 -8 -13 8 -23 17 -23 21 0 12 6 9 26 -13z m4661 -1 c-3 -8 -6 -5
-6 6 -1 11 2 17 5 13 3 -3 4 -12 1 -19z m-5260 -13 c-7 -13 -14 -19 -16 -13
-2 6 -12 0 -22 -13 -10 -13 -19 -19 -19 -12 0 9 56 62 67 63 0 0 -4 -11 -10
-25z m4873 -28 c0 -2 -9 -14 -20 -27 -11 -13 -20 -19 -20 -15 0 5 7 17 17 27
15 17 23 22 23 15z m3391 -24 c-12 -20 -14 -14 -5 12 4 9 9 14 11 11 3 -2 0
-13 -6 -23z m-7591 2 c7 -9 8 -15 2 -15 -5 0 -12 7 -16 15 -3 8 -4 15 -2 15 2
0 9 -7 16 -15z m4577 -27 c-3 -7 -5 -2 -5 12 0 14 2 19 5 13 2 -7 2 -19 0 -25z
m-3146 -42 c11 -21 16 -35 10 -31 -6 3 -11 1 -11 -4 0 -6 8 -11 18 -12 10 0
12 -3 5 -6 -7 -2 -13 -14 -14 -26 0 -12 -3 -17 -5 -10 -3 7 -12 9 -20 6 -7 -3
-12 -8 -9 -12 6 -11 -28 -10 -42 2 -15 11 -17 97 -3 97 6 0 8 -15 4 -40 -6
-40 -6 -40 25 -40 27 0 31 3 31 28 0 15 -5 33 -11 39 -7 7 -13 26 -14 44 -3
35 2 30 36 -35z m-1393 9 c-3 -3 -9 2 -12 12 -6 14 -5 15 5 6 7 -7 10 -15 7
-18z m4579 -12 c-3 -10 -5 -4 -5 12 0 17 2 24 5 18 2 -7 2 -21 0 -30z m-637
-75 c-30 -37 -79 -82 -119 -108 -38 -25 -91 -66 -118 -92 -43 -39 -66 -51
-159 -81 -96 -31 -313 -82 -320 -75 -5 6 -34 112 -34 125 0 7 11 13 26 13 48
0 277 51 369 82 104 34 289 122 355 167 25 17 46 31 47 31 2 0 -20 -28 -47
-62z m2301 29 c-10 -9 -11 -8 -5 6 3 10 9 15 12 12 3 -3 0 -11 -7 -18z m-6191
-22 c0 -5 -5 -3 -10 5 -5 8 -10 20 -10 25 0 6 5 3 10 -5 5 -8 10 -19 10 -25z
m4517 -17 c-2 -13 -4 -5 -4 17 -1 22 1 32 4 23 2 -10 2 -28 0 -40z m2914 -4
c-12 -21 -21 -34 -21 -27 0 13 33 73 38 68 2 -1 -6 -20 -17 -41z m-8881 12 c0
-3 -4 -8 -10 -11 -5 -3 -10 -1 -10 4 0 6 5 11 10 11 6 0 10 -2 10 -4z m2835
-26 c-3 14 9 -2 28 -35 18 -33 50 -87 70 -119 21 -33 37 -63 37 -68 0 -4 -12
-21 -27 -38 -27 -29 -61 -53 -145 -100 l-38 -20 -50 49 c-27 27 -50 53 -50 58
0 4 7 28 14 53 10 29 15 37 15 22 1 -37 71 -152 92 -152 14 0 131 83 136 96 8
23 -5 59 -41 113 -19 28 -32 51 -30 51 3 0 -2 10 -10 22 -9 12 -16 32 -16 43
0 17 -2 18 -11 5 -9 -12 -10 -12 -5 3 3 10 6 24 6 30 1 7 7 1 16 -13 l15 -25
-6 25z m-84 -27 c0 -10 3 -13 5 -6 7 17 49 -4 69 -34 9 -12 14 -23 12 -23 -4
0 -86 37 -106 49 -24 12 -24 31 -2 31 13 0 21 -7 22 -17z m-1286 -58 c-4 -25
-9 -44 -12 -41 -2 2 -1 25 2 51 4 25 9 44 12 41 2 -2 1 -25 -2 -51z m505 -32
c-11 -17 -11 -17 -6 0 3 10 7 35 8 55 l1 37 4 -37 c2 -21 -1 -46 -7 -55z
m6874 62 c-9 -14 -18 -25 -21 -25 -5 0 5 18 20 38 17 22 18 13 1 -13z m-3192
-18 c88 -32 170 -88 263 -182 91 -91 115 -141 115 -238 l0 -59 -33 34 c-18 18
-55 61 -81 96 -80 106 -146 166 -219 202 -68 33 -69 34 -130 21 -34 -7 -80
-21 -103 -31 -56 -26 -130 -108 -145 -161 -17 -64 -13 -179 10 -238 13 -35 15
-51 7 -55 -13 -5 -143 129 -152 156 -3 10 -9 18 -13 18 -5 0 -23 32 -41 71
-26 57 -31 79 -27 115 10 89 87 166 226 224 131 55 224 63 323 27z m-5595 -2
c12 -8 38 -43 59 -78 20 -34 57 -93 82 -130 47 -72 51 -108 10 -86 -36 19
-137 111 -159 144 l-20 30 7 -60 c3 -33 12 -73 20 -89 19 -40 18 -43 -7 -12
-50 63 -82 210 -59 266 14 33 34 38 67 15z m3003 -24 c0 -9 5 -22 12 -29 7 -7
9 -12 5 -12 -8 0 -47 61 -47 74 0 5 7 3 15 -4 8 -7 15 -20 15 -29z m3114 24
c3 -8 1 -15 -4 -15 -6 0 -10 7 -10 15 0 8 2 15 4 15 2 0 6 -7 10 -15z m-3369
-23 c17 -12 55 -89 55 -111 0 -46 -27 -15 -60 69 -19 48 -17 59 5 42z m-80
-43 c4 -23 23 -71 41 -107 39 -75 40 -102 2 -51 -48 63 -80 137 -73 169 9 42
22 37 30 -11z m459 18 c8 -13 6 -21 -8 -34 -17 -17 -18 -17 -11 5 5 16 2 22
-9 22 -17 0 -21 12 -9 24 10 9 25 3 37 -17z m3234 7 c50 -20 88 -59 120 -119
22 -42 27 -63 27 -130 0 -66 -5 -89 -27 -135 -25 -54 -88 -134 -75 -97 4 11
10 30 13 43 3 13 11 24 18 24 6 0 22 22 35 50 28 59 25 116 -11 188 -18 38
-23 42 -32 29 -11 -13 -15 -13 -46 0 -55 23 -80 25 -109 7 -43 -28 -108 -98
-104 -112 3 -7 1 -11 -5 -10 -5 2 -42 -27 -81 -64 -40 -36 -74 -61 -76 -55 -2
7 -6 28 -9 47 -3 19 -19 63 -35 97 l-30 62 48 -34 c66 -47 74 -44 22 9 l-43
43 69 50 c164 118 243 144 331 107z m1098 -64 c-25 -38 -49 -70 -52 -70 -7 0
8 24 60 102 17 25 33 44 35 42 2 -2 -17 -35 -43 -74z m1266 18 c-7 -7 -12 -8
-12 -2 0 14 12 26 19 19 2 -3 -1 -11 -7 -17z m-6828 -72 c-3 -21 -8 -35 -11
-32 -2 2 -1 20 3 40 3 21 8 35 11 32 2 -2 1 -20 -3 -40z m1278 30 c7 4 8 2 4
-4 -4 -6 -13 -9 -21 -6 -8 4 -12 11 -8 17 5 8 8 7 11 -1 2 -7 9 -9 14 -6z
m2803 4 c-3 -5 -12 -10 -18 -10 -7 0 -6 4 3 10 19 12 23 12 15 0z m-2377 -16
c12 -8 22 -22 22 -30 0 -8 4 -12 10 -9 6 4 7 -1 3 -11 -4 -11 -3 -15 5 -11 6
4 13 -1 16 -10 3 -10 4 -6 2 10 -4 32 -6 32 47 8 23 -10 57 -24 74 -31 l33
-12 -21 -26 c-14 -19 -19 -38 -18 -71 2 -38 9 -52 41 -85 38 -38 40 -39 96
-33 31 3 51 3 45 0 -7 -3 -13 -9 -13 -14 0 -6 8 -5 20 1 11 6 25 8 30 5 6 -4
9 -3 8 2 -1 4 6 21 17 38 14 20 20 46 20 83 l0 53 70 -6 c39 -3 110 -7 159 -9
99 -3 97 -2 110 -81 l7 -41 -96 -27 c-53 -15 -144 -49 -201 -77 -57 -27 -108
-51 -112 -52 -4 -2 -11 18 -16 44 -9 46 -9 46 -55 51 -61 6 -208 41 -256 61
-20 9 -46 16 -57 16 -12 0 -17 4 -12 12 4 7 3 8 -5 4 -12 -8 -63 5 -116 29
-17 8 -43 19 -59 24 -29 12 -147 79 -180 103 -17 14 -17 15 9 32 24 16 28 16
51 1 14 -9 22 -20 19 -25 -3 -6 1 -7 9 -4 15 6 37 -12 73 -61 19 -26 22 -27
23 -10 0 30 -15 49 -31 39 -11 -6 -11 -3 1 12 28 36 48 53 85 68 60 26 89 21
125 -21 30 -33 32 -41 27 -85 -8 -60 8 -55 17 6 6 35 2 54 -15 88 -12 24 -29
48 -38 55 -24 18 1 16 27 -3z m5086 -9 c-9 -14 -18 -25 -21 -25 -5 0 5 18 20
38 17 22 18 13 1 -13z m-5514 2 c8 0 21 -8 30 -17 8 -9 11 -9 5 -1 -9 12 -7
12 13 2 28 -15 28 -17 -7 -35 -25 -13 -31 -13 -50 0 -12 9 -19 20 -15 25 3 5
2 9 -3 8 -4 -1 -16 1 -26 6 -15 6 -16 10 -5 16 7 5 20 6 28 3 8 -4 22 -7 30
-7z m2765 1 c5 4 5 1 1 -6 -6 -10 -11 -10 -22 -1 -8 6 -14 14 -14 16 0 3 6 0
13 -6 8 -6 18 -7 22 -3z m-3115 -28 c0 -11 -4 -20 -9 -20 -5 0 -7 9 -4 20 3
11 7 20 9 20 2 0 4 -9 4 -20z m374 -89 c120 -83 425 -202 603 -236 42 -8 79
-17 82 -21 12 -11 -145 9 -204 26 -33 10 -107 33 -164 50 -124 38 -299 126
-360 183 l-44 40 -14 -24 c-14 -23 -14 -23 -8 13 3 21 1 39 -5 43 -5 3 -10 11
-10 17 0 6 17 -5 38 -24 21 -19 59 -49 86 -67z m-2717 83 c-3 -3 -12 -4 -19
-1 -8 3 -5 6 6 6 11 1 17 -2 13 -5z m6638 -16 c19 -13 35 -27 35 -31 0 -12
-121 -65 -187 -82 l-58 -15 -34 34 -34 34 44 12 c24 6 73 24 109 40 80 35 82
35 125 8z m-2158 -14 c-15 -14 -42 -31 -60 -39 -43 -18 -82 -52 -65 -57 6 -2
-8 -13 -33 -23 -49 -21 -158 -45 -163 -36 -2 3 -7 24 -10 47 l-7 40 101 23
c55 12 131 33 168 46 89 31 103 31 69 -1z m-3647 12 c0 -2 -8 -10 -17 -17 -16
-13 -17 -12 -4 4 13 16 21 21 21 13z m6056 -24 c-17 -16 -18 -16 -5 5 7 12 15
20 18 17 3 -2 -3 -12 -13 -22z m809 19 c3 -6 -16 -24 -42 -42 -27 -18 -59 -42
-73 -55 -14 -12 -49 -34 -77 -49 -52 -25 -55 -26 -238 -23 -116 2 -187 -1
-190 -7 -2 -5 -3 4 -2 20 l2 30 145 6 c110 5 169 13 245 33 100 27 215 74 215
88 0 11 8 10 15 -1z m-6298 -33 c-3 -8 -6 -5 -6 6 -1 11 2 17 5 13 3 -3 4 -12
1 -19z m-617 -11 c0 -2 -12 -14 -27 -28 l-28 -24 24 28 c23 25 31 32 31 24z
m2709 -23 c17 -14 30 -33 30 -42 -1 -16 -2 -16 -6 0 -4 16 -83 62 -91 53 -2
-2 5 -16 17 -31 22 -27 29 -60 11 -49 -5 3 -10 -1 -10 -9 0 -25 -44 -24 -72 1
-25 22 -22 50 7 78 32 33 75 32 114 -1z m2742 7 c90 -6 97 -8 122 -36 l25 -30
-49 -3 c-73 -5 -221 23 -236 44 -23 31 -16 47 15 39 15 -4 70 -10 123 -14z
m475 -16 c7 -19 14 -42 14 -52 0 -21 -82 -69 -197 -114 -43 -17 -84 -33 -92
-36 -11 -5 -11 -2 -1 16 6 13 12 46 12 75 l1 52 71 22 c39 13 89 34 111 47 53
32 63 31 81 -10z m144 12 c0 -2 -16 -18 -35 -37 -19 -19 -35 -30 -35 -26 0 4
14 21 31 37 29 27 39 34 39 26z m303 -4 c-7 -2 -19 -2 -25 0 -7 3 -2 5 12 5
14 0 19 -2 13 -5z m130 0 c-18 -2 -48 -2 -65 0 -18 2 -4 4 32 4 36 0 50 -2 33
-4z m808 -29 c-11 -15 -21 -24 -21 -20 0 10 34 55 39 51 2 -2 -6 -16 -18 -31z
m-7924 -4 c141 -81 244 -245 284 -453 19 -98 16 -339 -5 -417 -25 -94 -88
-194 -139 -221 l-20 -11 20 28 c37 52 70 128 84 189 17 76 17 271 0 350 -52
241 -185 443 -344 519 -75 37 -73 43 18 45 39 1 62 -6 102 -29z m3933 11 c0
-5 3 -18 6 -28 6 -15 4 -16 -7 -5 -14 13 -113 17 -105 4 2 -4 -13 -7 -35 -7
-30 0 -39 3 -37 15 2 10 20 17 53 21 82 10 125 10 125 0z m-1796 -16 c-4 -8
-13 -15 -22 -15 -13 0 -12 3 4 15 24 18 25 18 18 0z m3633 -37 c-3 -8 -6 -5
-6 6 -1 11 2 17 5 13 3 -3 4 -12 1 -19z m259 1 c37 -6 97 -9 135 -7 l69 5 9
-35 c8 -26 6 -44 -4 -68 l-14 -34 -83 5 c-46 3 -109 12 -141 20 -32 8 -67 15
-77 15 -24 0 -24 2 -4 69 11 38 19 51 30 47 8 -3 44 -11 80 -17z m1864 12 c0
-5 -7 -12 -16 -15 -14 -5 -15 -4 -4 9 14 17 20 19 20 6z m-5795 -44 c44 -19
96 -38 115 -42 52 -11 53 -13 17 -58 -36 -44 -55 -83 -36 -71 8 4 9 -3 4 -26
-5 -25 -4 -31 5 -25 8 5 11 4 7 -2 -7 -12 17 -71 48 -117 19 -28 19 -29 0 -43
-27 -19 -90 -37 -109 -30 -8 3 -20 23 -25 44 -24 87 -142 161 -200 124 -7 -5
-22 -6 -32 -4 -23 6 -25 38 -5 90 8 21 20 56 25 79 12 44 77 128 95 120 6 -2
47 -20 91 -39z m1250 -27 c-9 -18 -18 -30 -21 -27 -2 2 2 17 11 33 8 16 16 38
16 49 2 18 2 18 6 -2 2 -12 -3 -36 -12 -53z m-3480 30 c66 -28 141 -96 188
-167 60 -93 65 -104 91 -190 24 -81 23 -121 -3 -131 -37 -13 -71 -47 -71 -69
0 -13 6 -23 13 -22 6 1 30 1 52 0 55 -2 26 -21 -32 -21 l-43 0 0 -45 0 -45 55
0 c41 0 55 -4 55 -14 0 -18 -25 -26 -79 -29 -27 -1 -42 -6 -44 -17 -2 -8 -2
23 1 70 6 122 -19 255 -68 355 -40 83 -151 218 -213 261 -42 28 -97 43 -122
33 -16 -6 -13 -8 14 -8 36 -1 111 -43 149 -84 l22 -24 -29 5 c-73 10 -159 -49
-199 -138 -34 -73 -42 -217 -18 -310 48 -188 181 -350 290 -353 49 -1 99 41
136 116 17 34 28 51 24 37 -11 -42 -51 -106 -89 -138 -38 -34 -42 -47 -20 -76
27 -36 19 -46 -38 -46 -203 0 -424 308 -444 615 -6 108 9 228 38 296 31 71
105 135 172 148 108 22 144 21 212 -9z m3985 -2 c9 -3 -1 -10 -24 -18 -35 -11
-41 -11 -53 6 -7 10 -13 23 -13 28 0 6 5 3 11 -6 11 -20 39 -13 39 10 0 14 1
14 13 0 6 -9 19 -18 27 -20z m-4663 -3 c-9 -22 -80 -115 -89 -115 -8 0 -28 34
-28 49 0 14 89 81 108 81 8 0 12 -6 9 -15z m124 0 c8 5 11 4 6 0 -4 -5 12 -29
35 -54 47 -49 25 -38 -34 18 -21 19 -38 40 -38 46 0 5 4 4 9 -4 5 -8 14 -10
22 -6z m1870 -12 c-12 -20 -14 -14 -5 12 4 9 9 14 11 11 3 -2 0 -13 -6 -23z
m1354 9 c-3 -3 -11 0 -18 7 -9 10 -8 11 6 5 10 -3 15 -9 12 -12z m4025 10 c0
-11 -61 -46 -82 -47 -28 -2 -1 23 33 30 16 4 31 11 34 16 7 11 15 12 15 1z
m1300 4 c0 -2 -8 -10 -17 -17 -16 -13 -17 -12 -4 4 13 16 21 21 21 13z m-4597
-27 c42 10 50 -3 13 -20 -32 -15 -72 -4 -86 22 -11 20 -10 20 12 5 17 -11 32
-13 61 -7z m1131 -29 l7 -25 -15 25 c-9 14 -15 32 -15 40 0 13 1 13 8 0 5 -8
12 -26 15 -40z m-274 6 c0 -29 -21 -36 -110 -36 -71 0 -229 -31 -289 -56 -20
-8 -79 -31 -131 -51 -52 -20 -135 -53 -184 -75 -49 -21 -90 -37 -92 -36 -2 2
2 15 9 28 14 29 183 117 287 149 82 26 270 62 332 64 27 1 48 5 48 9 0 7 71
25 108 27 17 1 22 -4 22 -23z m-4824 -62 l76 -75 -7 -50 c-4 -27 -10 -49 -15
-49 -16 0 -126 87 -158 126 -19 21 -32 32 -29 24 3 -9 -1 -24 -9 -34 -11 -16
-14 -17 -19 -4 -5 13 68 138 80 138 3 0 39 -34 81 -76z m6170 24 c-9 -12 -16
-19 -16 -15 0 11 24 47 28 42 2 -2 -3 -14 -12 -27z m2324 18 c0 -2 -8 -10 -17
-17 -16 -13 -17 -12 -4 4 13 16 21 21 21 13z m-6638 -28 c-7 -7 -12 -8 -12 -2
0 14 12 26 19 19 2 -3 -1 -11 -7 -17z m1173 12 c-11 -4 -37 -26 -58 -49 -42
-46 -47 -44 -16 5 23 38 45 54 74 53 20 0 20 0 0 -9z m2041 -40 c20 -21 65
-57 100 -80 35 -22 64 -46 64 -53 0 -17 57 -81 100 -112 44 -32 189 -105 208
-105 8 0 -13 18 -46 40 -61 41 -89 67 -80 75 3 3 54 -2 113 -11 60 -9 123 -14
142 -12 18 2 33 0 33 -5 0 -9 69 -7 243 5 28 2 36 0 32 -10 -4 -10 3 -12 28
-7 17 4 37 12 44 17 9 7 21 -3 44 -36 18 -25 35 -44 37 -41 2 2 -6 25 -18 50
-18 37 -20 51 -12 68 8 17 11 18 11 5 1 -9 6 -20 13 -24 7 -5 8 -3 3 7 -8 12
-6 12 8 0 14 -11 20 -11 32 -1 13 11 14 10 9 -4 -7 -19 5 -21 31 -3 11 7 42
21 68 31 26 10 71 33 99 52 28 19 53 33 55 30 4 -4 -12 -96 -24 -136 -2 -8 2
-4 11 10 8 14 20 50 27 80 9 45 20 63 56 98 l45 43 152 -153 c262 -263 442
-549 572 -906 47 -129 56 -144 103 -170 23 -13 41 -27 41 -31 0 -5 -39 -26
-87 -48 -201 -92 -362 -123 -643 -123 -443 1 -902 145 -1410 443 -183 107
-256 151 -270 163 -30 24 -121 74 -114 62 4 -7 -5 -1 -19 15 -14 15 -109 67
-209 116 -243 118 -443 188 -507 179 -17 -2 -28 -1 -25 4 3 4 -28 7 -68 6 -67
-1 -69 -2 -28 -8 l45 -7 -55 -3 c-30 -2 -67 -2 -82 -1 -38 3 -212 -75 -202
-91 3 -4 -1 -6 -8 -3 -7 3 -30 -3 -51 -14 -20 -10 -37 -17 -37 -14 0 28 113
185 174 241 74 68 138 95 236 100 157 8 313 -35 575 -160 l20 -9 -20 16 c-11
9 -69 41 -130 70 -156 75 -301 115 -417 115 -78 0 -70 8 53 62 209 90 451 156
724 197 177 26 170 27 211 -19z m92 -8 c59 -54 69 -76 17 -36 -31 24 -83 84
-72 84 2 0 27 -21 55 -48z m1442 38 c0 -5 -5 -10 -11 -10 -5 0 -7 5 -4 10 3 6
8 10 11 10 2 0 4 -4 4 -10z m-3500 -36 c0 -23 -4 -33 -11 -28 -8 4 -9 -1 -4
-17 4 -17 3 -20 -3 -10 -7 9 -11 10 -17 2 -4 -7 -1 -18 5 -26 21 -26 -7 -48
-49 -40 -20 4 -40 9 -44 12 -13 8 9 26 35 30 30 5 42 18 43 48 1 20 29 65 42
65 1 0 3 -16 3 -36z m2385 -10 c-9 -10 -14 -25 -12 -36 3 -10 1 -16 -4 -12
-21 12 -2 64 24 64 5 0 1 -7 -8 -16z m842 1 c0 -8 -4 -12 -8 -9 -4 2 -10 0
-14 -6 -3 -5 -16 -15 -28 -21 -12 -6 -7 2 13 19 19 17 35 31 36 32 0 0 1 -7 1
-15z m-3932 -15 c-16 -4 -66 -7 -110 -7 l-80 1 75 6 c41 4 91 7 110 7 l35 1
-30 -8z m645 -20 c0 -5 -5 -10 -11 -10 -5 0 -7 5 -4 10 3 6 8 10 11 10 2 0 4
-4 4 -10z m938 -15 c-3 -30 -14 -33 -21 -5 -4 16 1 23 20 29 2 1 2 -10 1 -24z
m-4117 -8 c-10 -9 -11 -8 -5 6 3 10 9 15 12 12 3 -3 0 -11 -7 -18z m678 10 c6
-8 7 -17 3 -21 -4 -4 -2 -6 4 -4 15 4 68 -62 83 -104 7 -18 21 -52 31 -74 22
-48 44 -160 36 -180 -3 -8 -1 -14 3 -14 9 0 6 -93 -5 -159 -7 -43 -46 -122
-70 -142 -16 -12 -17 -12 -9 1 5 10 1 8 -13 -4 -18 -15 -26 -17 -53 -7 -106
37 -198 184 -218 350 -9 69 1 181 20 240 13 38 73 109 104 121 31 13 71 11 84
-3z m5543 -42 c6 -6 7 -3 3 10 -5 14 -4 16 2 7 8 -11 -14 -102 -28 -116 -2 -3
-2 30 0 72 2 42 6 68 9 57 2 -11 8 -24 14 -30z m2268 41 c0 -2 -8 -10 -17 -17
-16 -13 -17 -12 -4 4 13 16 21 21 21 13z m-3099 -23 c13 -17 13 -17 -6 -3 -11
8 -22 16 -24 17 -2 2 0 3 6 3 6 0 17 -8 24 -17z m-5301 -91 c0 -3 -18 12 -40
33 -22 21 -40 43 -40 48 0 5 18 -10 40 -33 22 -23 40 -45 40 -48z m6404 30
c-47 -44 -56 -33 -13 16 21 23 37 34 42 27 4 -5 -9 -25 -29 -43z m-5304 28 c0
-11 -2 -20 -4 -20 -2 0 -6 9 -9 20 -3 11 -1 20 4 20 5 0 9 -9 9 -20z m709 -22
c-5 -10 -11 -18 -12 -18 -2 0 -3 8 -3 18 0 10 6 19 13 19 8 0 9 -6 2 -19z
m6511 18 c0 -2 -8 -10 -17 -17 -16 -13 -17 -12 -4 4 13 16 21 21 21 13z
m-4425 -68 c-92 -80 -192 -186 -239 -258 -112 -168 -193 -377 -230 -596 l-23
-137 -21 31 c-21 29 -22 35 -11 104 26 176 80 360 141 483 105 210 317 426
418 425 22 -1 18 -6 -35 -52z m-720 15 c17 -21 21 -32 14 -45 -5 -10 -13 -18
-17 -18 -11 1 -43 70 -37 81 9 14 14 11 40 -18z m335 -3 c52 -5 124 -10 160
-10 l65 0 -57 -57 -57 -57 -73 23 c-96 31 -137 52 -173 91 l-30 33 35 -7 c19
-3 78 -10 130 -16z m-825 -10 c3 -6 -1 -7 -9 -4 -18 7 -21 14 -7 14 6 0 13 -4
16 -10z m5544 6 c-2 -2 -15 -9 -29 -15 -24 -11 -24 -11 -6 3 16 13 49 24 35
12z m-8152 -46 c6 0 14 6 16 13 3 6 6 -3 6 -21 l1 -32 -25 16 c-14 9 -31 26
-37 38 -11 20 -10 20 9 4 11 -10 24 -18 30 -18z m1671 10 c-7 -11 -19 -22 -28
-25 -8 -4 -4 5 9 19 29 31 36 33 19 6z m1702 -58 c36 -17 85 -36 110 -43 l45
-14 -42 -3 c-75 -6 -213 57 -213 96 0 10 -6 24 -12 32 -7 8 1 3 17 -12 17 -15
59 -40 95 -56z m2248 61 c-10 -2 -26 -2 -35 0 -10 3 -2 5 17 5 19 0 27 -2 18
-5z m79 -16 c7 0 9 -5 6 -10 -4 -6 4 -7 21 -3 18 4 25 3 21 -4 -9 -15 -32 -12
-61 7 -20 13 -27 14 -34 4 -5 -9 -10 -9 -14 -3 -8 13 14 22 34 15 8 -3 20 -6
27 -6z m2369 4 c-6 -9 -46 -22 -46 -15 0 3 10 9 23 14 29 11 29 11 23 1z
m-4909 -23 c23 -22 28 -43 17 -72 -9 -24 -19 -20 -48 25 -22 32 -25 43 -15 55
15 18 19 18 46 -8z m2646 -5 c-7 -2 -21 -2 -30 0 -10 3 -4 5 12 5 17 0 24 -2
18 -5z m-3583 -25 c-14 -5 -61 -11 -105 -13 l-80 -4 75 9 c41 6 82 12 90 14
31 8 44 4 20 -6z m-620 -7 c0 -5 -12 -17 -27 -26 l-28 -18 24 27 c26 28 31 31
31 17z m1050 -22 c0 -14 -26 -11 -39 5 -9 11 -6 12 14 8 14 -2 25 -8 25 -13z
m5259 17 c-15 -13 -49 -25 -49 -17 0 5 8 12 18 14 24 6 36 8 31 3z m-6044 -50
c44 -21 75 -40 69 -43 -15 -5 -164 66 -164 79 0 5 3 8 8 6 4 -2 43 -21 87 -42z
m728 22 c18 -13 34 -24 36 -25 2 -1 -10 -21 -26 -45 -21 -31 -35 -42 -49 -39
-10 3 -31 5 -46 5 -33 1 -35 7 -9 30 10 9 26 34 36 56 10 22 20 40 22 40 2 0
18 -10 36 -22z m620 -34 c-3 -8 -9 -14 -13 -14 -14 0 -22 20 -16 37 5 12 9 13
21 3 7 -6 11 -18 8 -26z m-1375 -127 c-96 -91 -120 -103 -170 -88 -21 7 -59
21 -85 32 l-46 19 43 31 c23 17 69 58 102 93 l60 62 84 -40 85 -41 -73 -68z
m468 81 c-19 -35 -47 -75 -61 -88 -14 -14 -2 11 30 60 30 46 55 88 55 93 0 6
3 8 6 4 3 -3 -10 -34 -30 -69z m444 47 c17 -9 30 -20 30 -25 0 -16 -13 -11
-45 15 -34 28 -28 32 15 10z m-41 -27 c33 -33 36 -44 22 -67 -10 -16 -35 -5
-69 32 -21 22 -22 27 -10 46 17 27 20 27 57 -11z m314 -10 c-5 -28 -17 -36
-28 -18 -5 8 25 54 31 47 1 -1 0 -14 -3 -29z m241 9 c18 -13 17 -15 -3 -55
-11 -23 -21 -48 -21 -57 0 -20 -6 -19 -41 6 -32 23 -35 31 -16 51 7 7 20 25
30 41 20 31 26 32 51 14z m-166 -35 c4 -35 0 -37 -29 -22 -22 12 -25 30 -7 48
19 19 33 9 36 -26z m62 5 c0 -13 -7 -32 -15 -43 -15 -18 -16 -17 -9 16 10 54
24 69 24 27z m183 -8 c12 -7 24 -13 26 -15 1 -1 -9 -18 -23 -37 -14 -19 -26
-39 -26 -45 0 -16 -21 -15 -43 3 -20 15 -17 40 9 83 16 25 26 27 57 11z m-694
-21 c8 -13 20 -32 26 -43 7 -11 10 -28 6 -37 -5 -14 -12 -12 -43 18 -34 31
-37 36 -26 59 14 31 19 31 37 3z m-1249 8 c0 -2 -7 -7 -16 -10 -8 -3 -12 -2
-9 4 6 10 25 14 25 6z m1478 -75 c-3 -67 -3 -68 -25 -58 -13 6 -23 17 -23 26
0 19 37 101 45 101 3 0 5 -31 3 -69z m534 -7 c-16 -33 -27 -44 -38 -40 -9 3
-20 6 -25 6 -16 0 -10 31 13 63 30 43 40 49 58 32 12 -13 11 -21 -8 -61z
m-864 47 c16 -9 1 -24 -35 -35 -35 -11 -53 -34 -53 -68 0 -23 14 -45 66 -98
l65 -68 -35 -21 c-47 -30 -71 -73 -86 -156 -7 -38 -16 -76 -19 -82 -4 -8 -34
21 -80 79 -67 84 -73 95 -67 127 3 20 6 55 6 78 0 35 7 48 46 90 25 26 42 39
37 28 -11 -22 -5 -105 7 -105 7 0 20 73 20 117 0 75 79 145 128 114z m412 -69
c5 -79 0 -86 -44 -51 -22 17 -26 29 -26 68 0 55 5 63 40 59 24 -3 25 -7 30
-76z m-910 33 c-64 -40 -152 -71 -230 -81 l-55 -7 69 52 c89 67 95 70 191 70
l80 1 -55 -35z m986 -63 c0 -49 -3 -72 -11 -72 -25 0 -43 37 -50 103 l-7 68
33 -14 34 -13 1 -72z m-436 60 c0 -13 -12 -22 -22 -16 -10 6 -1 24 13 24 5 0
9 -4 9 -8z m520 -89 c0 -80 -7 -87 -45 -48 -21 20 -25 34 -25 84 l0 59 35 -11
35 -10 0 -74z m-1903 81 c-3 -3 -12 -4 -19 -1 -8 3 -5 6 6 6 11 1 17 -2 13 -5z
m1409 -18 c15 -16 19 -66 5 -66 -5 0 -12 14 -16 30 -4 17 -11 28 -16 25 -5 -4
-6 1 -3 9 8 20 12 20 30 2z m-1519 -2 c-3 -3 -12 -4 -19 -1 -8 3 -5 6 6 6 11
1 17 -2 13 -5z m2093 -83 c0 -37 -3 -71 -6 -74 -4 -4 -20 1 -35 10 -27 16 -29
22 -29 78 0 34 3 64 6 68 3 3 19 1 35 -5 28 -10 29 -12 29 -77z m61 44 c23
-12 27 -19 20 -33 -4 -9 -12 -38 -15 -64 -7 -49 -23 -61 -45 -34 -8 9 -10 35
-5 80 4 36 9 66 11 66 2 0 17 -7 34 -15z m83 -38 c16 -12 16 -16 -4 -70 -12
-31 -25 -57 -29 -57 -21 0 -33 31 -27 67 14 78 23 87 60 60z m-481 -18 c45
-23 77 -47 77 -60 0 -4 -9 -11 -20 -14 -28 -9 -130 42 -130 65 0 36 16 38 73
9z m-609 1 c19 -7 26 -17 26 -37 0 -43 -12 -103 -20 -103 -9 0 -49 90 -51 115
-3 40 1 42 45 25z m1459 -35 c-3 -9 -8 -14 -10 -11 -3 3 -2 9 2 15 9 16 15 13
8 -4z m-877 -37 c40 -24 54 -39 54 -56 0 -12 -7 -25 -16 -29 -22 -8 -124 43
-124 63 0 17 18 54 26 54 3 0 30 -15 60 -32z m-658 -103 c-3 -4 -16 9 -28 27
l-23 33 28 -27 c16 -15 26 -30 23 -33z m636 10 c53 -27 71 -33 78 -23 4 8 8 9
8 2 0 -17 -47 -64 -64 -64 -24 0 -105 42 -111 58 -6 16 4 62 14 62 3 0 37 -16
75 -35z m-188 -1 c10 -41 -11 -97 -45 -117 -42 -25 -46 -6 -5 28 28 23 34 35
34 66 0 32 -3 36 -20 32 -11 -3 -36 -23 -55 -44 -36 -41 -47 -37 -19 7 19 27
59 53 86 54 11 0 20 -10 24 -26z m528 8 c3 -5 -1 -51 -9 -103 -23 -152 -11
-154 15 -2 7 40 17 70 22 67 4 -3 8 0 8 5 0 6 5 11 10 11 7 0 7 -7 0 -20 -6
-12 -11 -53 -12 -93 0 -40 -3 -76 -6 -82 -4 -5 -7 -14 -7 -20 0 -5 -21 -11
-47 -13 -27 -2 -48 1 -48 6 0 17 31 217 36 235 6 18 29 23 38 9z m-327 -114
c27 -10 33 -17 29 -33 -3 -11 -6 -23 -6 -27 0 -29 -150 29 -150 58 0 7 4 24
10 38 l9 26 37 -25 c20 -13 51 -30 71 -37z m199 14 c0 -26 -1 -40 -4 -32 -3 8
-9 18 -14 21 -7 4 8 59 16 59 1 0 1 -21 2 -48z m1939 -132 c105 -69 214 -141
244 -160 51 -32 53 -35 47 -69 -3 -20 -8 -79 -11 -131 -4 -52 -9 -106 -11
-120 -10 -50 14 -4 59 110 25 63 49 116 55 118 5 1 42 -16 83 -39 352 -200
847 -349 1160 -349 43 0 79 -2 79 -4 0 -2 -51 -109 -114 -238 -62 -130 -120
-252 -127 -273 -8 -20 -23 -41 -34 -45 -42 -16 -302 -33 -405 -26 -408 25
-851 181 -1235 435 -201 132 -292 255 -337 453 l-21 93 43 70 c69 114 137 201
212 270 l71 65 26 -17 c14 -10 112 -74 216 -143z m-2745 95 c5 3 21 -12 37
-32 15 -21 31 -39 35 -41 4 -2 4 -10 1 -18 -3 -9 0 -12 8 -9 9 3 26 -12 44
-40 17 -24 36 -45 43 -45 6 0 12 -4 12 -10 0 -5 11 -15 25 -23 l26 -13 -21
-19 c-11 -10 -20 -23 -20 -28 0 -6 10 -1 23 11 32 31 94 29 160 -4 38 -19 103
-78 245 -221 l192 -195 -21 -29 c-23 -32 -29 -34 -49 -16 -8 6 -6 1 5 -13 l20
-24 -25 16 c-14 9 -24 23 -22 32 2 9 -2 16 -8 16 -6 0 -8 -4 -5 -10 3 -5 3
-10 0 -10 -11 0 -88 61 -106 83 -9 11 -21 17 -28 13 -7 -4 -23 -1 -36 8 -31
20 -39 20 -31 0 6 -14 4 -15 -9 -4 -13 11 -13 15 -3 22 11 8 11 11 0 15 -8 3
-11 17 -9 36 2 18 2 24 0 15 -2 -10 -8 -18 -13 -18 -10 0 -6 -52 5 -71 7 -12
6 -12 -7 -1 -9 7 -14 22 -11 35 4 17 3 19 -6 7 -8 -12 -12 -13 -23 -2 -11 11
-10 13 2 10 10 -2 15 4 14 19 0 12 4 20 10 17 6 -3 3 1 -7 9 -17 14 -17 16 5
31 12 9 17 16 11 16 -7 0 -15 -5 -19 -12 -12 -19 -23 24 -13 50 11 28 3 67
-17 83 -8 6 -14 16 -14 22 0 5 10 -3 22 -19 12 -16 25 -31 29 -34 3 -3 11 -19
17 -37 9 -26 8 -31 -4 -26 -7 3 -11 10 -7 16 3 6 1 7 -6 3 -6 -4 -9 -11 -6
-16 3 -4 -1 -11 -7 -13 -7 -3 4 -3 25 -1 27 3 38 1 35 -8 -3 -7 8 -23 24 -36
16 -14 35 -37 44 -53 8 -16 20 -29 27 -28 9 0 9 2 0 6 -27 10 -11 21 19 13 28
-9 24 -2 -48 74 -43 46 -96 104 -117 130 -21 25 -42 44 -47 41 -5 -3 -11 -1
-15 5 -10 16 -58 11 -84 -9 -21 -16 -23 -24 -18 -57 l7 -39 -33 49 c-17 27
-46 63 -62 80 -17 17 -41 46 -54 65 l-24 34 27 -18 c15 -10 29 -15 33 -11 3 3
1 6 -6 6 -7 0 -10 4 -7 9 8 12 -16 29 -36 26 -21 -4 -42 20 -32 36 4 8 3 9 -5
5 -7 -5 -15 4 -22 23 -6 17 -15 31 -19 31 -9 0 -70 96 -69 108 0 4 3 1 6 -6 2
-6 9 -10 13 -7z m812 -65 c20 -23 19 -24 -16 -11 -16 7 -23 16 -21 28 2 10 4
29 6 43 1 22 2 21 8 -7 3 -18 14 -42 23 -53z m-224 -17 c51 -31 -9 -44 -78
-17 -36 14 -40 20 -40 51 l0 34 48 -27 c26 -15 57 -33 70 -41z m187 -88 c4
-36 5 -78 3 -94 -2 -17 -1 -28 4 -25 4 3 8 -5 8 -18 1 -13 8 -34 16 -48 l15
-25 -6 25 c-4 14 -9 71 -12 128 -5 90 -4 102 11 102 14 0 16 -16 16 -119 0
-73 5 -133 13 -157 8 -22 17 -52 21 -67 6 -26 5 -27 -14 -17 -11 6 -25 8 -31
5 -5 -4 -25 0 -44 9 -31 15 -34 20 -40 77 -10 86 8 289 25 289 5 0 12 -29 15
-65z m-245 33 c64 -17 64 -17 50 -33 -8 -9 -30 -15 -60 -15 -41 0 -49 3 -54
23 -10 39 -7 50 12 42 9 -4 33 -11 52 -17z m410 -36 c0 -12 -3 -12 -15 -2 -13
11 -15 5 -15 -42 0 -61 18 -168 30 -183 5 -6 8 -31 8 -58 0 -45 -1 -47 -28
-47 -26 0 -28 3 -39 63 -7 34 -15 117 -18 183 l-6 122 42 -11 c23 -6 41 -17
41 -25z m-360 -67 c0 -38 -71 -50 -90 -16 -20 39 -13 46 40 43 44 -4 50 -6 50
-27z m12 -82 c-5 -28 -32 -30 -55 -3 -23 28 -22 29 21 27 34 -2 38 -5 34 -24z
m-216 -48 c21 -32 10 -65 -21 -65 -24 0 -35 17 -35 54 0 43 31 49 56 11z m7
-131 c-7 -19 -17 -18 -36 4 -16 18 -15 18 12 14 20 -3 28 -8 24 -18z m416 -37
c8 -11 8 -16 2 -12 -24 14 -9 -12 32 -54 l42 -44 -58 48 c-50 43 -87 85 -87
99 0 11 59 -20 69 -37z m159 -60 c2 -34 7 -63 12 -65 6 -2 10 -10 10 -18 0 -9
5 -12 10 -9 6 3 10 1 10 -4 0 -6 -13 -11 -30 -11 -36 0 -55 27 -65 90 -3 25
-9 53 -11 63 -4 14 1 17 28 17 l33 0 3 -63z m539 1 c-3 -8 -6 -5 -6 6 -1 11 2
17 5 13 3 -3 4 -12 1 -19z m-300 -80 c-2 -13 -4 -3 -4 22 0 25 2 35 4 23 2
-13 2 -33 0 -45z m925 31 c30 -16 48 -70 48 -145 0 -64 1 -66 23 -60 35 11
153 19 180 12 13 -3 59 -30 103 -59 257 -174 509 -292 803 -376 251 -73 443
-97 679 -87 87 4 177 9 201 12 l44 6 -7 -133 c-18 -355 -24 -422 -37 -430 -24
-15 -173 -59 -270 -80 -137 -29 -416 -37 -572 -15 -202 29 -395 87 -582 176
-120 58 -115 43 -55 161 59 115 63 115 -69 5 l-71 -59 -58 38 c-244 161 -484
413 -583 611 l-41 82 41 93 c54 123 112 214 153 239 38 23 42 24 70 9z m-1421
-120 c19 -15 31 -30 27 -34 -11 -11 -152 108 -157 131 -2 13 11 6 46 -26 27
-25 65 -57 84 -71z m-28 -47 c46 -39 60 -40 93 -6 31 30 36 27 127 -56 61 -56
66 -70 40 -125 -16 -33 -52 -52 -39 -20 3 8 0 14 -6 12 -7 -1 -12 4 -13 12 0
8 -7 16 -15 18 -13 4 -13 3 0 -6 8 -6 10 -11 4 -11 -6 0 -17 7 -24 15 -7 8
-17 15 -23 15 -6 0 -23 11 -37 24 -14 14 -73 71 -132 127 -60 57 -108 107
-108 113 0 6 21 -10 48 -35 26 -25 64 -60 85 -77z m357 -70 c21 -19 25 -32 27
-97 l3 -74 -32 11 c-46 15 -50 21 -38 52 7 20 6 34 -4 54 -16 31 -107 119
-151 147 -16 10 -32 20 -34 21 -2 2 7 17 19 34 l22 31 82 -78 c44 -44 92 -89
106 -101z m167 121 c-3 -10 -5 -4 -5 12 0 17 2 24 5 18 2 -7 2 -21 0 -30z
m-167 18 c0 -17 -15 -19 -28 -5 -11 12 -9 14 8 14 11 0 20 -4 20 -9z m177
-123 c-2 -13 -4 -5 -4 17 -1 22 1 32 4 23 2 -10 2 -28 0 -40z m10 -60 c-3 -7
-5 -2 -5 12 0 14 2 19 5 13 2 -7 2 -19 0 -25z m17 -88 c4 -20 3 -30 -3 -25 -4
6 -11 28 -14 50 -7 47 7 26 17 -25z m509 -215 c27 -49 65 -111 84 -138 18 -26
33 -54 33 -63 0 -9 14 -34 31 -56 46 -57 25 -61 -25 -4 -24 26 -46 44 -48 40
-3 -5 -3 -3 -2 3 2 7 -7 25 -20 40 -42 50 -93 137 -112 190 -10 28 -22 49 -28
46 -5 -3 -6 -1 -3 4 4 6 0 27 -8 47 -8 19 -15 50 -15 69 0 18 -7 42 -15 53 -8
10 -14 26 -14 34 1 8 21 -28 46 -80 25 -52 68 -135 96 -185z m-730 159 c27 -9
68 -14 97 -12 l49 3 20 -55 c11 -30 26 -75 32 -100 7 -25 17 -51 22 -57 21
-28 -14 -10 -89 46 -110 82 -201 165 -196 179 5 15 9 15 65 -4z m244 -76 c-3
-8 -6 -5 -6 6 -1 11 2 17 5 13 3 -3 4 -12 1 -19z m45 -143 c3 -13 2 -22 -2
-20 -4 3 -10 16 -12 30 -3 13 -2 22 2 20 4 -3 10 -16 12 -30z m29 -79 c5 -6 9
-15 9 -20 0 -6 -7 -2 -15 8 -8 11 -14 29 -14 40 1 20 1 21 6 1 3 -11 9 -24 14
-29z m26 -42 c-4 -4 3 -21 14 -38 l21 -31 -26 28 c-23 25 -27 47 -9 47 4 0 3
-3 0 -6z m549 -61 c23 -31 24 -34 5 -18 -22 19 -46 55 -38 55 3 0 17 -17 33
-37z m-488 -34 c19 -30 11 -32 -11 -3 -10 13 -14 24 -10 24 5 0 14 -9 21 -21z
m522 -43 c0 -3 -4 -8 -10 -11 -5 -3 -10 -1 -10 4 0 6 5 11 10 11 6 0 10 -2 10
-4z m2471 -63 c13 -16 12 -17 -3 -4 -10 7 -18 15 -18 17 0 8 8 3 21 -13z m-94
-45 c-3 -7 -5 -2 -5 12 0 14 2 19 5 13 2 -7 2 -19 0 -25z m138 22 c3 -6 -1 -7
-9 -4 -18 7 -21 14 -7 14 6 0 13 -4 16 -10z m314 -32 c-75 -110 -401 -387
-456 -388 -19 -1 -64 -30 -46 -30 7 0 15 5 18 10 3 6 11 10 18 10 6 0 2 -7
-10 -15 -12 -8 -28 -12 -37 -9 -18 7 -86 -14 -86 -27 0 -5 -9 -9 -19 -9 -11 0
-23 -5 -26 -10 -4 -6 -10 -8 -15 -5 -5 3 -56 -8 -113 -25 -57 -16 -114 -30
-126 -30 -12 0 -20 -3 -18 -7 3 -5 -7 -9 -21 -9 -15 -1 -108 -6 -207 -11 -99
-5 -191 -6 -205 -2 -16 5 3 8 56 8 242 3 590 106 845 252 137 78 314 202 399
279 64 57 80 63 49 18z m-229 -13 c0 -2 -9 -3 -19 -2 -11 0 -18 5 -15 9 4 6
34 0 34 -7z m-66 -34 c6 -9 -97 -81 -116 -81 -7 0 10 14 37 30 28 16 51 34 51
40 1 5 2 12 3 15 2 8 19 6 25 -4z m-164 -106 c0 -8 -4 -15 -10 -15 -5 0 -7 7
-4 15 4 8 8 15 10 15 2 0 4 -7 4 -15z m-1535 -293 c-3 -3 -11 0 -18 7 -9 10
-8 11 6 5 10 -3 15 -9 12 -12z m1395 -42 c-24 -15 -36 -11 -14 4 10 8 21 12
24 10 2 -3 -2 -9 -10 -14z m-160 -74 c0 -6 -121 -46 -134 -45 -6 0 18 11 54
24 68 25 80 28 80 21z m-315 -106 c-11 -5 -29 -9 -40 -9 l-20 0 20 9 c11 5 29
9 40 9 l20 0 -20 -9z m-70 -10 c3 -6 -4 -10 -17 -10 -18 0 -20 2 -8 10 19 12
18 12 25 0z m-60 -10 c3 -6 -1 -7 -9 -4 -18 7 -21 14 -7 14 6 0 13 -4 16 -10z
m-652 -7 c-7 -2 -19 -2 -25 0 -7 3 -2 5 12 5 14 0 19 -2 13 -5z"/>
<path d="M4358 8774 c13 -24 40 -49 47 -42 3 2 -9 18 -26 34 -24 22 -29 24
-21 8z"/>
<path d="M4281 8766 c-10 -11 -7 -17 11 -30 12 -9 31 -16 41 -16 10 0 28 -5
40 -11 13 -6 4 7 -20 30 -46 45 -55 48 -72 27z"/>
<path d="M3850 8622 c9 -4 37 -22 63 -40 55 -38 75 -38 25 0 -42 32 -73 48
-90 47 -9 0 -8 -2 2 -7z"/>
<path d="M3780 8610 c0 -5 7 -10 16 -10 9 0 43 -16 75 -37 78 -47 86 -37 13
16 -54 39 -104 53 -104 31z"/>
<path d="M5010 8643 c-27 -10 -50 -36 -50 -54 0 -28 51 -78 85 -85 35 -6 69
16 80 53 12 42 -69 104 -115 86z m60 -57 c0 -8 -5 -18 -11 -22 -14 -8 -33 11
-25 25 10 16 36 13 36 -3z"/>
<path d="M5088 8443 c-43 -2 -78 -7 -78 -11 0 -4 6 -17 14 -28 13 -19 20 -19
95 -11 76 9 81 11 81 33 0 17 -5 23 -17 22 -10 -1 -53 -4 -95 -5z"/>
<path d="M5511 8145 c-109 -33 -163 -154 -112 -253 71 -137 250 -164 344 -52
50 59 55 123 16 201 -43 86 -153 132 -248 104z m103 -26 c58 -16 93 -60 101
-128 3 -31 2 -67 -4 -81 -9 -24 -10 -23 -9 10 0 19 -1 53 -2 75 -3 35 -4 33
-9 -19 -7 -67 -28 -91 -95 -106 -51 -11 -91 4 -116 45 -48 78 -8 168 85 188
14 3 12 5 -8 6 -64 3 -114 -37 -136 -110 l-11 -34 6 39 c14 97 94 144 198 115z
m-145 -246 c17 -38 9 -37 -16 2 -14 21 -17 32 -9 29 7 -3 19 -17 25 -31z m161
-57 c0 -2 -7 -7 -16 -10 -8 -3 -12 -2 -9 4 6 10 25 14 25 6z"/>
<path d="M5022 7844 c-102 -51 -132 -164 -67 -250 31 -40 94 -73 140 -74 43 0
126 42 158 79 67 80 35 201 -66 250 -57 28 -102 26 -165 -5z m146 -30 c46 -32
67 -131 36 -170 -15 -18 -15 -18 -5 3 6 12 11 37 11 55 l-1 33 -14 -40 c-31
-88 -129 -109 -184 -39 -40 51 -17 140 43 164 34 14 90 11 114 -6z m-194 -140
c3 -9 3 -20 0 -25 -3 -5 0 -8 8 -7 7 2 12 -3 10 -11 -2 -7 7 -25 20 -38 31
-34 100 -31 143 6 28 25 29 25 10 2 -18 -22 -18 -24 -2 -18 24 9 22 -19 -2
-33 -11 -5 -40 -10 -65 -10 -64 0 -114 44 -136 121 -9 30 3 41 14 13z m276
-51 c-11 -17 -11 -17 -6 0 3 10 7 26 7 35 1 15 2 15 6 0 2 -10 -1 -25 -7 -35z"/>
<path d="M4644 8030 c-24 -9 -54 -47 -54 -66 0 -26 52 -74 79 -74 67 0 97 88
45 129 -29 23 -38 24 -70 11z m59 -42 c17 -26 1 -50 -30 -46 -34 4 -43 36 -17
55 21 15 34 13 47 -9z"/>
<path d="M2972 7944 c-30 -21 -29 -59 4 -80 23 -16 28 -16 60 -1 22 11 34 24
34 37 0 22 10 26 27 9 8 -8 13 -8 18 0 3 6 0 13 -7 16 -51 18 -102 35 -107 35
-4 0 -17 -7 -29 -16z m67 -23 c9 -6 4 -10 -18 -13 -31 -5 -47 3 -34 16 9 9 35
7 52 -3z"/>
<path d="M3369 7775 c-35 -19 -45 -59 -23 -92 14 -22 21 -25 56 -20 22 3 51
16 64 28 62 58 -18 127 -97 84z m75 -37 c8 -14 6 -22 -11 -39 -37 -38 -83 2
-47 42 20 23 42 22 58 -3z"/>
<path d="M2912 7668 c-6 -26 -12 -64 -11 -85 0 -33 3 -29 15 27 17 78 14 126
-4 58z"/>
<path d="M2994 7636 c-10 -27 1 -51 25 -54 26 -4 41 12 41 46 0 18 -5 22 -30
22 -17 0 -33 -6 -36 -14z m51 -16 c-3 -5 -13 -10 -21 -10 -8 0 -14 5 -14 10 0
6 9 10 21 10 11 0 17 -4 14 -10z"/>
<path d="M3039 7553 c-13 -16 -12 -17 4 -4 16 13 21 21 13 21 -2 0 -10 -8 -17
-17z"/>
<path d="M2950 7527 c-35 -18 -39 -47 -6 -47 31 0 32 -4 7 -38 -10 -15 -23
-37 -30 -49 -11 -21 -9 -23 13 -23 19 0 25 6 29 33 6 36 21 93 32 120 9 21 -9
22 -45 4z"/>
<path d="M2997 7433 c-13 -47 -17 -93 -8 -93 15 0 41 42 41 66 0 30 -27 52
-33 27z"/>
<path d="M2636 7138 c-20 -27 -15 -33 26 -33 29 0 33 4 36 28 3 23 0 27 -22
27 -14 0 -31 -9 -40 -22z"/>
<path d="M6452 7868 c-34 -17 -76 -110 -68 -153 8 -43 61 -113 104 -138 44
-26 129 -28 166 -4 38 25 66 75 66 118 0 57 -45 135 -94 164 -47 27 -131 33
-174 13z m168 -34 c40 -24 60 -65 60 -122 0 -127 -146 -162 -228 -54 -37 49
-38 128 -3 166 21 22 33 26 84 26 37 0 69 -6 87 -16z"/>
<path d="M6470 7810 c0 -6 7 -10 15 -10 8 0 15 2 15 4 0 2 -7 6 -15 10 -8 3
-15 1 -15 -4z"/>
<path d="M6446 7802 c-2 -4 -1 -14 4 -22 7 -11 9 -9 7 8 -1 24 -3 26 -11 14z"/>
<path d="M6336 7557 c3 -10 9 -15 12 -12 3 3 0 11 -7 18 -10 9 -11 8 -5 -6z"/>
<path d="M3685 7501 c-3 -5 -1 -12 5 -16 5 -3 10 1 10 9 0 18 -6 21 -15 7z"/>
<path d="M3436 6789 c-54 -13 -91 -42 -110 -89 -22 -55 -20 -89 7 -140 31 -58
76 -82 145 -77 83 6 140 60 149 140 5 38 1 54 -21 91 -38 66 -97 91 -170 75z
m89 -55 c25 -16 45 -61 45 -101 0 -14 -4 -21 -10 -18 -5 3 -10 -1 -10 -9 0 -8
-4 -18 -10 -21 -5 -3 -7 0 -5 8 3 7 1 24 -4 38 -9 23 -10 23 -10 -8 -1 -57
-78 -74 -125 -27 -78 79 35 200 129 138z m33 -178 c-14 -31 -55 -56 -93 -56
-35 0 -82 25 -96 53 l-12 22 25 -22 c19 -18 36 -23 77 -23 44 0 56 4 79 28 33
33 37 33 20 -2z"/>
<path d="M3293 6365 c0 -33 2 -45 4 -27 2 18 2 45 0 60 -2 15 -4 0 -4 -33z"/>
<path d="M2400 7375 c-7 -20 -10 -39 -7 -41 3 -3 10 11 17 31 7 20 10 39 7 41
-3 3 -10 -11 -17 -31z"/>
<path d="M2620 7515 c0 -14 2 -25 4 -25 2 0 6 11 8 25 3 14 1 25 -3 25 -5 0
-9 -11 -9 -25z"/>
<path d="M2518 7223 c7 -3 16 -2 19 1 4 3 -2 6 -13 5 -11 0 -14 -3 -6 -6z"/>
<path d="M3966 6883 c-6 -14 -5 -15 5 -6 7 7 10 15 7 18 -3 3 -9 -2 -12 -12z"/>
<path d="M3886 6818 c3 -5 10 -6 15 -3 13 9 11 12 -6 12 -8 0 -12 -4 -9 -9z"/>
<path d="M3449 7153 c-13 -16 -12 -17 4 -4 9 7 17 15 17 17 0 8 -8 3 -21 -13z"/>
<path d="M7190 6835 c-20 -22 -21 -25 -6 -31 12 -5 14 -10 6 -19 -8 -9 -4 -11
15 -7 19 3 25 10 25 31 0 45 -13 54 -40 26z"/>
<path d="M7114 6767 l-29 -32 30 25 c17 14 32 26 34 28 2 1 2 4 -1 7 -2 3 -18
-10 -34 -28z"/>
<path d="M7198 6729 c-24 -13 -23 -49 0 -49 10 0 23 5 30 12 16 16 15 48 0 48
-7 0 -21 -5 -30 -11z"/>
<path d="M5916 5962 c-3 -5 1 -9 9 -9 8 0 15 4 15 9 0 4 -4 8 -9 8 -6 0 -12
-4 -15 -8z"/>
<path d="M2936 6807 c3 -10 9 -15 12 -12 3 3 0 11 -7 18 -10 9 -11 8 -5 -6z"/>
<path d="M9402 5340 c0 -14 2 -19 5 -12 2 6 2 18 0 25 -3 6 -5 1 -5 -13z"/>
<path d="M2785 6600 c4 -6 0 -22 -9 -35 -18 -27 -20 -35 -8 -35 4 0 16 14 25
30 18 29 16 50 -4 50 -6 0 -7 -5 -4 -10z"/>
<path d="M3566 6084 c-21 -20 -20 -50 0 -58 30 -12 44 -6 60 27 9 17 13 29 9
25 -4 -4 -14 -1 -22 7 -18 19 -28 19 -47 -1z"/>
<path d="M4815 6020 c-3 -5 1 -10 9 -10 9 0 16 5 16 10 0 6 -4 10 -9 10 -6 0
-13 -4 -16 -10z"/>
<path d="M6608 5473 c6 -2 18 -2 25 0 6 3 1 5 -13 5 -14 0 -19 -2 -12 -5z"/>
<path d="M8071 5028 c-54 -126 -79 -180 -104 -228 -49 -91 -154 -245 -208
-304 -59 -65 -53 -77 7 -13 75 78 234 303 234 330 0 4 11 30 24 59 25 55 76
179 76 185 0 2 -3 3 -8 3 -4 0 -13 -15 -21 -32z"/>
<path d="M2824 4989 c-4 -8 0 -9 15 -4 12 4 21 2 21 -4 0 -6 5 -11 11 -11 5 0
8 3 6 8 -3 4 17 7 44 6 26 0 54 3 61 8 7 4 -23 8 -69 8 -49 0 -85 -4 -89 -11z"/>
<path d="M3260 4700 c6 -11 13 -20 16 -20 2 0 0 9 -6 20 -6 11 -13 20 -16 20
-2 0 0 -9 6 -20z"/>
<path d="M3341 4564 c0 -11 3 -14 6 -6 3 7 2 16 -1 19 -3 4 -6 -2 -5 -13z"/>
<path d="M3200 4700 c0 -6 7 -10 15 -10 8 0 15 2 15 4 0 2 -7 6 -15 10 -8 3
-15 1 -15 -4z"/>
<path d="M3929 4477 c-32 -22 -34 -26 -34 -79 0 -31 2 -55 4 -53 2 3 13 -2 25
-10 56 -40 141 -3 153 67 5 32 1 41 -25 68 -37 37 -76 39 -123 7z m91 -32 c26
-31 -13 -82 -44 -56 -16 14 -22 52 -9 64 11 12 40 8 53 -8z"/>
<path d="M3760 4420 c-8 -5 -10 -10 -5 -10 6 0 17 5 25 10 8 5 11 10 5 10 -5
0 -17 -5 -25 -10z"/>
<path d="M3825 4380 c-3 -6 1 -7 9 -4 18 7 21 14 7 14 -6 0 -13 -4 -16 -10z"/>
<path d="M4055 4320 c-3 -5 1 -10 10 -10 9 0 13 5 10 10 -3 6 -8 10 -10 10 -2
0 -7 -4 -10 -10z"/>
<path d="M4259 4257 c11 -14 11 -17 1 -17 -8 0 -11 -3 -7 -6 3 -3 13 -1 23 4
16 9 15 11 -7 22 -22 12 -23 12 -10 -3z"/>
<path d="M5275 4410 c-3 -6 1 -7 9 -4 18 7 21 14 7 14 -6 0 -13 -4 -16 -10z"/>
<path d="M5248 4383 c6 -2 18 -2 25 0 6 3 1 5 -13 5 -14 0 -19 -2 -12 -5z"/>
<path d="M4357 4355 c-4 -8 -2 -17 3 -20 6 -4 10 3 10 14 0 25 -6 27 -13 6z"/>
<path d="M3032 4113 c4 -33 41 -45 52 -17 8 20 0 29 -32 39 -21 6 -23 4 -20
-22z"/>
<path d="M3193 4083 c9 -2 23 -2 30 0 6 3 -1 5 -18 5 -16 0 -22 -2 -12 -5z"/>
<path d="M1245 3960 c3 -5 8 -10 11 -10 2 0 4 5 4 10 0 6 -5 10 -11 10 -5 0
-7 -4 -4 -10z"/>
<path d="M6680 3649 c0 -4 11 -31 24 -60 63 -143 118 -356 156 -599 l20 -125
-5 108 c-7 166 -46 339 -114 510 -31 78 -80 178 -81 166z"/>
<path d="M5470 3485 c0 -2 40 -31 88 -64 320 -215 616 -365 905 -461 115 -37
85 -16 -40 30 -296 107 -565 245 -885 456 -38 24 -68 42 -68 39z"/>
<path d="M6558 2933 c7 -3 16 -2 19 1 4 3 -2 6 -13 5 -11 0 -14 -3 -6 -6z"/>
<path d="M3475 4091 c-3 -5 -1 -12 5 -16 5 -3 10 1 10 9 0 18 -6 21 -15 7z"/>
<path d="M981 3955 c1 -19 18 -51 18 -35 0 8 -4 22 -9 30 -5 8 -9 11 -9 5z"/>
<path d="M1017 3921 c4 -3 10 -10 14 -14 3 -4 11 -2 17 5 8 10 5 13 -15 14
-13 1 -21 -1 -16 -5z"/>
<path d="M1007 3896 c-4 -11 -4 -22 1 -25 5 -3 8 -54 8 -113 -1 -65 2 -98 7
-85 9 24 7 177 -3 217 -5 23 -7 23 -13 6z"/>
<path d="M1048 3879 c-3 -8 1 -20 8 -27 15 -14 17 -7 5 22 -6 15 -9 16 -13 5z"/>
<path d="M1080 3875 c0 -8 4 -15 10 -15 5 0 7 7 4 15 -4 8 -8 15 -10 15 -2 0
-4 -7 -4 -15z"/>
<path d="M2787 3470 c3 -11 9 -17 15 -14 5 3 4 12 -3 20 -16 19 -18 18 -12 -6z"/>
<path d="M2705 3210 c10 -11 20 -20 23 -20 3 0 -3 9 -13 20 -10 11 -20 20 -23
20 -3 0 3 -9 13 -20z"/>
<path d="M3302 2621 c-7 -4 -2 -14 15 -26 14 -11 32 -26 40 -33 18 -19 17 3
-3 33 -18 27 -36 36 -52 26z m33 -19 c-3 -3 -11 0 -18 7 -9 10 -8 11 6 5 10
-3 15 -9 12 -12z"/>
<path d="M3390 2606 c23 -25 60 -52 60 -43 0 2 -19 19 -42 37 -38 29 -40 30
-18 6z"/>
<path d="M3432 3010 c0 -19 2 -27 5 -17 2 9 2 25 0 35 -3 9 -5 1 -5 -18z"/>
<path d="M3026 2881 c-10 -15 3 -53 17 -48 17 5 18 21 4 41 -10 13 -16 16 -21
7z"/>
<path d="M3510 2363 c1 -16 100 -104 100 -88 0 17 -33 66 -56 84 -33 26 -44
26 -44 4z"/>
<path d="M487 7000 c-40 -12 -129 -81 -169 -132 -59 -72 -55 -76 14 -13 71 65
168 121 193 111 27 -10 16 -45 -27 -83 -120 -109 -148 -137 -143 -141 3 -3 18
6 33 20 62 58 192 131 259 147 l38 9 -52 1 c-52 1 -53 2 -53 30 0 52 -31 69
-93 51z"/>
<path d="M172 6570 c0 -19 2 -27 5 -17 2 9 2 25 0 35 -3 9 -5 1 -5 -18z"/>
<path d="M2015 6404 c0 -41 1 -42 13 -18 10 20 10 28 0 43 -11 16 -13 13 -13
-25z"/>
</g>
</svg>
